<svg xmlns="http://www.w3.org/2000/svg" width="40.737" height="40.737" viewBox="0 0 40.737 40.737">
  <g id="그룹_14094" data-name="그룹 14094" transform="translate(-48.98 -66.819)">
    <path id="패스_8313" data-name="패스 8313" d="M56.921,19.786H6.779c-1.254,0-2.279-.655-2.279-1.455h0c0-.8,1.026-1.455,2.279-1.455H56.921c1.254,0,2.279.655,2.279,1.455h0C59.2,19.131,58.175,19.786,56.921,19.786Z" transform="translate(33.866 96.748) rotate(-45)"/>
    <path id="패스_8314" data-name="패스 8314" d="M52.421,0H2.279C1.026,0,0,.655,0,1.456H0c0,.8,1.026,1.455,2.279,1.455H52.421c1.254,0,2.279-.655,2.279-1.455h0C54.7.655,53.675,0,52.421,0Z" transform="translate(87.659 107.556) rotate(-135)"/>
  </g>
</svg>
