<svg xmlns="http://www.w3.org/2000/svg" width="45.553" height="54.107" viewBox="0 0 45.553 54.107">
  <g id="변압기" transform="translate(-40.495 512)">
    <path id="패스_19506" data-name="패스 19506" d="M47.788-511.852a5.5,5.5,0,0,0-4.175,5.116.9.9,0,0,0,.772.972h.264l-.359.666c-.666,1.247-.877,2.727-.465,3.139a.845.845,0,0,0,.528.211c.169,0,.317.021.317.053a2.2,2.2,0,0,1-.264.455,5.584,5.584,0,0,0-.761,2.41c-.053.719-.053.75.233.972.254.2.423.233,1.279.233h.994v1.163H44.639c-1.807,0-2.262.127-3.023.8a3.23,3.23,0,0,0-.856,3.71,3.537,3.537,0,0,0,2.463,1.934h.285v11.1c0,10.665-.011,11.1-.19,11.1a3.2,3.2,0,0,0-1.7.8,3.211,3.211,0,0,0-.127,4.756,4.04,4.04,0,0,0,.856.624l.391.18.053.772a2.771,2.771,0,0,0,1.184,2.241c.782.539,1.089.581,3.953.539,2.452-.032,2.632-.042,3.044-.264a3.224,3.224,0,0,0,1.628-2.7v-.4h21.35v.4a3.153,3.153,0,0,0,1.638,2.7c.391.222.592.233,3.033.264,2.864.042,3.171,0,3.953-.539a2.771,2.771,0,0,0,1.184-2.241l.053-.772.391-.18a4.04,4.04,0,0,0,.856-.624,3.211,3.211,0,0,0-.127-4.756,3.2,3.2,0,0,0-1.7-.8c-.18,0-.19-.433-.19-11.1v-11.1h.3a3.23,3.23,0,0,0,1.786-.962,3.051,3.051,0,0,0,.909-2.272,3.054,3.054,0,0,0-1.1-2.41c-.761-.676-1.215-.8-3.023-.8H80.4v-1.163h.994c.856,0,1.025-.032,1.279-.233.285-.222.285-.254.233-.972a5.584,5.584,0,0,0-.761-2.41,2.2,2.2,0,0,1-.264-.455c0-.032.148-.053.317-.053a.845.845,0,0,0,.528-.211c.412-.412.2-1.892-.465-3.139l-.359-.666h.264a.849.849,0,0,0,.507-.264c.676-.666.011-2.991-1.226-4.281-.74-.772-1.247-.888-1.681-.38-.3.359-.169.782.4,1.363a3.9,3.9,0,0,1,1.036,1.681l.063.3h-3.71c-4.164,0-3.911.063-3.509-.793a3.976,3.976,0,0,1,1.184-1.48,4.476,4.476,0,0,1,2.146-.793.792.792,0,0,0,.56-1.353c-.3-.275-.7-.3-1.649-.074a5.368,5.368,0,0,0-4.133,5.042c0,.518.032.624.275.814a1.02,1.02,0,0,0,.528.222h.254l-.328.5c-.687,1.089-.962,2.864-.518,3.308a.78.78,0,0,0,.476.211c.328,0,.328.074,0,.645-.666,1.163-.909,2.843-.454,3.266.2.18.37.211,1.268.211H74.7l-.032.55-.032.56-4.249.032-4.26.021v-1.163h1.036c.972,0,1.057-.021,1.289-.264s.233-.328.18-1.025a5.223,5.223,0,0,0-.761-2.357,2.927,2.927,0,0,1-.264-.423c0-.032.148-.053.317-.053a.85.85,0,0,0,.539-.222c.433-.433.137-2.156-.55-3.3l-.307-.5h.254a1.02,1.02,0,0,0,.528-.222c.233-.18.275-.3.275-.772A5.486,5.486,0,0,0,63.273-512a5.486,5.486,0,0,0-5.39,5.242c0,.476.042.592.275.772a1.02,1.02,0,0,0,.528.222h.254l-.264.4a5.543,5.543,0,0,0-.772,2.41c-.042.666-.021.782.18.983a.85.85,0,0,0,.539.222c.18,0,.317.021.317.053a2.926,2.926,0,0,1-.264.423,5.223,5.223,0,0,0-.761,2.357c-.053.7-.042.793.18,1.025s.317.264,1.289.264h1.036v1.163l-4.249-.021-4.26-.032-.032-.56-.032-.55h1.046c.9,0,1.068-.032,1.268-.211.454-.423.211-2.1-.454-3.266-.328-.571-.328-.645,0-.645a.78.78,0,0,0,.476-.211c.444-.444.169-2.22-.518-3.308l-.328-.5h.254a1.02,1.02,0,0,0,.528-.222c.243-.19.275-.3.275-.814a5.422,5.422,0,0,0-4.133-5.042A5.583,5.583,0,0,0,47.788-511.852Zm2.368,1.638a3.8,3.8,0,0,1,2.389,2.146c.317.772.571.719-3.551.719h-3.71l.063-.3a4.07,4.07,0,0,1,1.807-2.262A3.672,3.672,0,0,1,50.156-510.214Zm14.174-.032a3.538,3.538,0,0,1,1.776,1.142,3.312,3.312,0,0,1,.867,1.564c0,.18-.243.19-3.7.19s-3.7-.011-3.7-.19a4.2,4.2,0,0,1,1.7-2.3A3.85,3.85,0,0,1,64.33-510.245Zm-12.768,4.894A4.544,4.544,0,0,1,52.7-503.5c0,.148-.37.169-3.71.169h-3.71l.063-.3a4.484,4.484,0,0,1,1.226-1.8l.444-.338h4.069Zm14.353.116a4.113,4.113,0,0,1,1.057,1.765c0,.106-.814.137-3.7.137s-3.7-.032-3.7-.137a4.113,4.113,0,0,1,1.057-1.765l.539-.528h4.207Zm14.1-.169a4.42,4.42,0,0,1,1.173,1.776l.074.3h-3.71c-3.34,0-3.71-.021-3.71-.169a4.544,4.544,0,0,1,1.142-1.85l.476-.412h4.122Zm-28.443,4.185A3.665,3.665,0,0,1,52.7-499.4c0,.18-.2.19-3.7.19-2.885,0-3.7-.032-3.7-.137a4.615,4.615,0,0,1,.856-1.607c.676-.772.761-.793,2.917-.793h1.913Zm13.793-.38a3.945,3.945,0,0,1,1.332,1.511c.476.951.75.877-3.425.877-4.2,0-3.9.085-3.393-.93a3.979,3.979,0,0,1,1.332-1.48A15.192,15.192,0,0,1,65.365-501.6Zm14.279,0a4.26,4.26,0,0,1,1.6,2.251c0,.106-.814.137-3.7.137-3.5,0-3.7-.011-3.7-.19a3.665,3.665,0,0,1,1.131-1.818l.581-.529h1.892A6.814,6.814,0,0,1,79.645-501.6Zm-29.373,4.555v.592l-1.237-.032-1.247-.032-.032-.56-.032-.55h2.547Zm14.269,0v.581H62v-1.163h2.537Zm14.248-.032-.032.56-1.237.032-1.247.032v-1.173H78.82Zm4.851,2.41a1.67,1.67,0,0,1,.772,1.068,1.74,1.74,0,0,1-1.215,1.987c-.592.159-39.255.159-39.847,0a1.74,1.74,0,0,1-1.215-1.987,1.67,1.67,0,0,1,.772-1.068c.328-.211.7-.211,20.367-.211S83.312-494.877,83.64-494.666Zm-2.188,15.8v11.045H45.093v-22.09H81.452Zm2.188,12.842a1.68,1.68,0,0,1-.444,3.055c-.613.169-39.2.159-39.858,0a1.683,1.683,0,0,1-.433-3.055c.328-.211.7-.211,20.367-.211S83.312-466.234,83.64-466.023Zm-32.628,5.073a1.549,1.549,0,0,1-.655,1.268c-.328.2-.486.211-2.8.19l-2.463-.032-.328-.338a1.157,1.157,0,0,1-.391-.867l-.053-.539h6.69Zm31.159.222a1.157,1.157,0,0,1-.391.867l-.328.338-2.463.032c-2.315.021-2.473.011-2.8-.19a1.549,1.549,0,0,1-.655-1.268v-.317h6.69Z" fill="#000c7a"/>
    <path id="패스_19507" data-name="패스 19507" d="M164.143-290.778c-1.131.433-1.448.867-4.291,5.824a37.113,37.113,0,0,0-2.6,4.82.639.639,0,0,0,.275.539c.719.571.782.5,3.678-4.534,1.437-2.484,2.716-4.608,2.843-4.735a2.157,2.157,0,0,1,2.991.106c.264.3,7.378,12.609,7.494,12.969a2.193,2.193,0,0,1-1.406,2.653c-.518.137-14.723.148-15.241,0a2.415,2.415,0,0,1-1.311-1.11,2.414,2.414,0,0,1,.275-2.336c.433-.856.444-.9.3-1.173a.875.875,0,0,0-.983-.412c-.2.042-.38.264-.666.772a3.926,3.926,0,0,0-.7,2.251,3.693,3.693,0,0,0,2.156,3.34l.666.306h15.749l.655-.306a3.7,3.7,0,0,0,2.124-3.974c-.137-.74.032-.444-4.069-7.557-3.89-6.754-4.059-6.986-5.264-7.441A4.138,4.138,0,0,0,164.143-290.778Z" transform="translate(-102.224 -197.641)" fill="#000c7a"/>
    <path id="패스_19508" data-name="패스 19508" d="M214.995-250.578c-.349.2-.666.655-2.114,3.033-1.628,2.685-1.691,2.822-1.733,3.446a2.206,2.206,0,0,0,2.463,2.368c.793,0,.761-.053.518,1.046a1.8,1.8,0,0,0,.349,1.924,1.656,1.656,0,0,0,2.177.317,48.883,48.883,0,0,0,3.837-4.841,2.337,2.337,0,0,0-.624-2.537,2.557,2.557,0,0,0-1.945-.56,1.935,1.935,0,0,1-.772-.085c0-.042.1-.624.222-1.289a8.346,8.346,0,0,0,.169-1.607A1.729,1.729,0,0,0,214.995-250.578Zm.994,1.448c0,.053-.116.772-.264,1.585-.243,1.4-.243,1.522-.1,1.9.275.676.666.846,1.9.846,1.786,0,1.955.37.824,1.807-2.23,2.822-2.611,3.277-2.7,3.192a4.458,4.458,0,0,1,.148-1.216c.211-1.078.222-1.142.042-1.5-.285-.613-.708-.8-1.807-.8-1.046,0-1.332-.137-1.332-.613a54.528,54.528,0,0,1,2.875-5.021C215.787-249.236,215.988-249.331,215.988-249.13Z" transform="translate(-152.61 -233.592)" fill="#f09"/>
  </g>
</svg>
