<svg xmlns="http://www.w3.org/2000/svg" width="65.357" height="75.212" viewBox="0 0 65.357 75.212">
  <defs>
    <style>
      .cls-1 {
        fill: #212c92;
      }

      .cls-2 {
        fill: #f99a38;
      }
    </style>
  </defs>
  <g id="그룹_13694" data-name="그룹 13694" transform="translate(-297.872 -500)">
    <path id="패스_2089" data-name="패스 2089" class="cls-1" d="M108.79,250.438a104.509,104.509,0,0,1-10.8-9.82,89.138,89.138,0,0,1-9.053-10.986,53.433,53.433,0,0,1-6.3-11.8,33.642,33.642,0,0,1-1.585-5.9,25.91,25.91,0,0,1-.277-5.539,9.362,9.362,0,1,0-18.432,1.7l.169.657a44.034,44.034,0,0,0,3.232,8.7,49.5,49.5,0,0,0,4.628,7.4A65.79,65.79,0,0,0,81.788,236.4a97.146,97.146,0,0,0,12.8,8.618,107.679,107.679,0,0,0,13.588,6.541.644.644,0,0,0,.633-1.107Z" transform="translate(254.17 303.537)"/>
    <path id="패스_2090" data-name="패스 2090" class="cls-2" d="M104.031,256.533a53.282,53.282,0,0,1-21.718-7.261l-1.182-.7L80,247.8c-.743-.53-1.5-1.012-2.207-1.563a46.288,46.288,0,0,1-4.007-3.489,47.026,47.026,0,0,1-6.509-7.865,10.4,10.4,0,1,0-14.141,14.707l.131.08a65.108,65.108,0,0,0,12.513,6.463,60.882,60.882,0,0,0,6.517,2.116c1.092.29,2.208.493,3.3.732.549.111,1.09.234,1.637.332l1.653.23a59.579,59.579,0,0,0,12.975.486,54.129,54.129,0,0,0,12.357-2.226.646.646,0,0,0-.131-1.261Z" transform="translate(249.526 315.033)"/>
  </g>
</svg>
