<svg xmlns="http://www.w3.org/2000/svg" width="91.794" height="98.091" viewBox="0 0 91.794 98.091">
  <defs>
    <style>
      .cls-1 {
        fill: #212c92;
      }

      .cls-2 {
        fill: #f09;
      }
    </style>
  </defs>
  <g id="그룹_13696" data-name="그룹 13696" transform="translate(19.261 107.971) rotate(-109)">
    <path id="패스_2089" data-name="패스 2089" class="cls-1" d="M62.285,240.937a86.11,86.11,0,0,0,8.9-8.092,73.449,73.449,0,0,0,7.46-9.052,44.029,44.029,0,0,0,5.194-9.725,27.72,27.72,0,0,0,1.306-4.859,21.349,21.349,0,0,0,.228-4.564,7.714,7.714,0,1,1,15.188,1.4l-.139.541a36.283,36.283,0,0,1-2.663,7.171,40.788,40.788,0,0,1-3.814,6.1,54.209,54.209,0,0,1-9.409,9.52,80.044,80.044,0,0,1-10.549,7.1,88.719,88.719,0,0,1-11.2,5.39.531.531,0,0,1-.522-.912Z" transform="translate(-41.624 -196.463)"/>
    <path id="패스_2090" data-name="패스 2090" class="cls-2" d="M49.342,271.111a78.94,78.94,0,0,0,17.851-3.924A79.486,79.486,0,0,0,83.188,259.8l1.842-1.087,1.765-1.214c1.158-.826,2.334-1.577,3.44-2.436a72.133,72.133,0,0,0,6.245-5.438,73.286,73.286,0,0,0,10.144-12.257,16.206,16.206,0,1,1,22.038,22.92l-.2.125a101.464,101.464,0,0,1-19.5,10.073,94.884,94.884,0,0,1-10.156,3.3c-1.7.453-3.442.768-5.14,1.141-.855.173-1.7.365-2.551.517l-2.576.359a92.846,92.846,0,0,1-20.221.757,84.354,84.354,0,0,1-19.257-3.469,1.007,1.007,0,0,1,.2-1.965Z" transform="translate(-48.345 -200.081)"/>
  </g>
</svg>
