<svg xmlns="http://www.w3.org/2000/svg" width="88.563" height="42.929" viewBox="0 0 88.563 42.929">
  <defs>
    <style>
      .cls-1 {
        fill: none;
        stroke: #000c7a;
        stroke-width: 3px;
      }
    </style>
  </defs>
  <path id="패스_19496" data-name="패스 19496" class="cls-1" d="M30.5,50.86c-6.491,0-9.7,3.2-11.1,5.251a11.028,11.028,0,0,0-.741,11.223c1.839,3.471,5.434,5.382,10.124,5.382H90.718c5.388,0,9.335-1.889,11.113-5.321a8.39,8.39,0,0,0-.672-8.721c-2.146-3.039-5.972-4.425-10.5-3.8l-1.749.24.482-1.7A11.757,11.757,0,0,0,71.981,40.155l-1.157.7-.51-1.253a10.851,10.851,0,0,0-20.263.391c-.037.1-.065.2-.095.3l-.437,1.425-1.359-.559c-.06-.026-.119-.053-.182-.076a10.324,10.324,0,0,0-13.831,8.858l-.1,1.176-1.174-.128A21.8,21.8,0,0,0,30.5,50.86Z" transform="translate(-15.8 -31.287)"/>
</svg>
