<svg xmlns="http://www.w3.org/2000/svg" width="36.881" height="17.609" viewBox="0 0 36.881 17.609">
  <defs>
    <style>
      .cls-1 {
        fill: none;
        stroke: #000c7a;
        stroke-width: 2.4px;
      }
    </style>
  </defs>
  <path id="패스_19502" data-name="패스 19502" class="cls-1" d="M2828.229,2892.4a3.1,3.1,0,0,0,3.8-2.207c.01-.018.443-1.42,2.828-1.42,2.976,0,5.136,5.285,5.553,6.7a3.107,3.107,0,0,0,2.949,2.235h.036a3.11,3.11,0,0,0,2.967-2.173c.876-2.784,3.158-6.815,4.98-6.815,2.126,0,2.715,1.246,2.872,1.922a3.109,3.109,0,0,0,6.125-1.067,8.79,8.79,0,0,0-9-7.075c-3.566,0-6.187,2.443-7.964,5.053-1.96-2.727-4.788-5-8.52-5-5.726,0-8.285,3.952-8.831,6.044A3.107,3.107,0,0,0,2828.229,2892.4Z" transform="translate(-2824.709 -2881.303)"/>
</svg>
