<svg xmlns="http://www.w3.org/2000/svg" width="28.496" height="28.496" viewBox="0 0 28.496 28.496">
  <g id="그룹_14073" data-name="그룹 14073" transform="translate(-1390.504 -281.121)">
    <path id="패스_8313" data-name="패스 8313" d="M36.669,2.036H1.594C.717,2.036,0,1.578,0,1.018H0C0,.458.717,0,1.594,0H36.669c.877,0,1.594.458,1.594,1.018h0C38.263,1.578,37.545,2.036,36.669,2.036Z" transform="translate(1390.504 308.177) rotate(-45)" fill="#fff"/>
    <path id="패스_8314" data-name="패스 8314" d="M36.669,0H1.594C.717,0,0,.458,0,1.018H0c0,.56.717,1.018,1.594,1.018H36.669c.877,0,1.594-.458,1.594-1.018h0C38.263.458,37.546,0,36.669,0Z" transform="translate(1417.561 309.617) rotate(-135)" fill="#fff"/>
  </g>
</svg>
