<svg xmlns="http://www.w3.org/2000/svg" width="749.866" height="270.802" viewBox="0 0 749.866 270.802">
  <defs>
    <style>
      .cls-1 {
        fill: #eff9fa;
        fill-rule: evenodd;
      }
    </style>
  </defs>
  <path id="패스_8276" data-name="패스 8276" class="cls-1" d="M707.474,446.588a42.316,42.316,0,0,0,11.26-83.108,84.649,84.649,0,0,0-84.047-94.6,84.3,84.3,0,0,0-53.762,19.261,73.668,73.668,0,0,0-63.475-59.35,70.268,70.268,0,0,0-136.51,1.158A37.248,37.248,0,0,0,325.1,258.489a49.95,49.95,0,0,0-57.352,5.6,63.482,63.482,0,0,0-100.817-13.3A66.863,66.863,0,0,0,54.367,211.313,70.941,70.941,0,0,0-.073,185.942V446.588Z" transform="translate(0.073 -175.786)"/>
</svg>
