<svg xmlns="http://www.w3.org/2000/svg" width="207.716" height="304.163" viewBox="0 0 207.716 304.163">
  <defs>
    <style>
      .cls-1 {
        fill: #fff;
        stroke: #000c7a;
        stroke-width: 2.4px;
      }
    </style>
  </defs>
  <g id="그룹_38796" data-name="그룹 38796" transform="translate(-1362.273 -426.684)">
    <path id="패스_19498" data-name="패스 19498" class="cls-1" d="M189.647,887.245c0-.8,0-78.27,70.165-137.917,0,0-14.48,1.966-21.809,7.33l-1.43-1.966-2.145,4.111-2.145-4.111-1.609,5.005s-11.262,1.966-17.519,4.111c0,0,10.368-25.92,48.981-20.379,0,0-9.117-3.4-12.692-3.575l-1.073-3.4-4.29,4.111-1.43-5.72-4.827,6.793s-21.451-.357-30.39,1.966c0,0,12.871-22.346,41.116-19.307,0,0,16.447,2.324,23.419,11.8,0,0-9.3-12.156-16.625-14.48l-1.073-3.04-4.647,3.754-1.073-3.754-2.5,3.4s-10.368-6.972-21.094-8.045c0,0,13.228-8.044,30.568-1.787s19.843,24.491,19.843,24.491,4.469-18.592-12.335-28.067c0,0,27.172.357,18.949,28.781,0,0,10.9-8.223,29.318-1.251s17.876,28.6,17.876,28.6-12.871-10.189-19.664-12.513l.536-4.648s-3.218,4.291-3.039,3.754-1.788-2.324-1.788-2.324l-1.43.894-1.251-6.972-5.184,4.29s-13.586-5.363-19.307-5.363c0,0,20.379,2.86,28.96,19.843s-1.073,39.149-1.073,39.149l-6.793-23.776,3.754-4.112H296.1s4.648-2.681,4.112-2.86-4.291-1.073-4.291-1.073a39.7,39.7,0,0,0-11.441-16.8s21.631,25.206-17.34,57.2c0,0,8.938-13.049,7.866-32.892l2.145-2.682-5.005-1.073,5.9-6.436-9.117,2.145s1.966-5.72,2.145-8.58c0,0-3.754-5.363-4.29-5.541s-54.7,30.39-59.171,132.911Z" transform="translate(1173.826 -157.598)"/>
    <g id="그룹_38766" data-name="그룹 38766" transform="translate(1365.732 427.88)">
      <path id="패스_19499" data-name="패스 19499" class="cls-1" d="M132.079,89.618s23.713-31.909,36.3-32.495,36.886,16.247,36.886,16.247-14.93,6.587-19.907,3.366-10.246-5.855-10.246-5.855,3.365,6.711,1.334,7.463-14.215,5.265-16.848,4.588-12.862-3.008-12.862-2.783.3,6.995-.15,8.048S134.1,97.224,134.1,97.224s40.089-11.282,56.712-7.521,35.9,34.316,35.9,34.316-25.258,3.941-30.411-.909-7.88-12.831-8.991-12.831,2.425,10.811-1.314,10.912-17.579-1.818-24.147-9.4-8.588-8.688-8.79-8.082,1.616,5.657-.707,5.253c-2.082-.362-10.574-1.779-13.624-2.069-.354-.034-.634-.053-.824-.053-1.818,0,32.23,16.064,44.757,49.809s8.689,59.407,8.689,59.407-15.964-12.932-15.812-30.359c0,0,1.061-9.093-.455-9.093s-1.515,6.062-2.879,6.213-12.276-7.275-13.034-26.067-5.3-16.973-5.152-16.367-.455,8.032-1.515,7.275-17.817-22.126-20.427-37.888c0,0-11.1-3.334-16.7-3.031s-20-5.456-30.158,17.731a8.685,8.685,0,0,1-5.607-6.213c-1.06-4.85-4.243-1.667-3.94,1.061s4.4,9.092-2.273,14.548-17.125,12.882-18.034,10.305-1.212-11.67-2.577-9.7-.151,13.185-2.728,14.548-18.186,11.518-25.612,12.427c0,0,3.789-33.947,41.222-51.981s55.012-10.76,55.012-10.76-22.883-6.972-25-9.245-2.88-5.758-6.062-5.607S74.762,95.529,71.73,96.286s-3.94-1.212-3.485-2.879,1.818-7.123-.152-7.123-5.3,13.336-8.487,13.79-20.914.152-30.007-7.123c0,0,33.19-28.34,48.648-28.946s44.1,32.128,45.01,32.28,1.818-7.123,1.363-8.941-6.062-4.243-6.668-7.275-1.212-8.032-12.427-6.517c0,0-11.215-7.123-10.76-9.85s2.425-5.3-.152-5.607S79.157,62.945,77.64,61.279s0-4.551-1.212-4.17-6.668,6.745-9.547,6.139S54.908,59.005,51.423,53.7c0,0,39.705-15.307,49.86-11.973S125.581,72.206,132.079,89.618Z" transform="translate(-24.447 -41.253)"/>
      <path id="패스_19500" data-name="패스 19500" class="cls-1" d="M133.249,131.39a13,13,0,1,0,13-13A13,13,0,0,0,133.249,131.39Z" transform="translate(-44.909 -56.049)"/>
      <ellipse id="타원_81" data-name="타원 81" class="cls-1" cx="10.882" cy="10.882" rx="10.882" ry="10.882" transform="translate(74.1 58.546)"/>
      <path id="패스_19501" data-name="패스 19501" class="cls-1" d="M201.9,129.913S171.292,178.988,160.077,287.5h-19.4s23.945-122.148,50.011-160.338Z" transform="translate(-93.576 -57.73)"/>
    </g>
  </g>
</svg>
