<svg xmlns="http://www.w3.org/2000/svg" width="55.927" height="59.016" viewBox="0 0 55.927 59.016">
  <g id="그룹_38754" data-name="그룹 38754" transform="translate(-757.709 -1066.301)">
    <path id="사각형_18431" data-name="사각형 18431" d="M0,0H45.747a0,0,0,0,1,0,0V.051A22.543,22.543,0,0,1,23.2,22.593h-.662A22.543,22.543,0,0,1,0,.051V0A0,0,0,0,1,0,0Z" transform="translate(759.209 1096.239)" fill="none" stroke="#000c7a" stroke-linecap="round" stroke-linejoin="round" stroke-width="3"/>
    <path id="패스_19490" data-name="패스 19490" d="M21.362,0h4.466a2.611,2.611,0,0,1,2.611,2.611V28.439H0V19.978C0,11.293,5.359,0,21.362,0Z" transform="translate(759.209 1067.801)" fill="none" stroke="#000c7a" stroke-linecap="round" stroke-width="3"/>
    <path id="패스_19488" data-name="패스 19488" d="M819.271,1098.885s-.877-13.181,13.154-13.181" transform="translate(-20.289 -2.645)" fill="none" stroke="#000c7a" stroke-linecap="round" stroke-linejoin="round" stroke-width="3"/>
    <ellipse id="타원_79" data-name="타원 79" cx="5.967" cy="5.967" rx="5.967" ry="5.967" transform="translate(766.54 1111.883)" fill="#fff" stroke="#f09" stroke-linecap="round" stroke-linejoin="round" stroke-width="3"/>
    <ellipse id="타원_80" data-name="타원 80" cx="5.967" cy="5.967" rx="5.967" ry="5.967" transform="translate(788.305 1111.883)" fill="#fff" stroke="#f09" stroke-linecap="round" stroke-linejoin="round" stroke-width="3"/>
  </g>
</svg>
