<svg xmlns="http://www.w3.org/2000/svg" width="36.584" height="56.019" viewBox="0 0 36.584 56.019">
  <g id="그룹_38719" data-name="그룹 38719" transform="translate(1.697 1.201)">
    <path id="패스_58" data-name="패스 58" d="M2148.249,1147.052a10.54,10.54,0,0,0-10.54,10.54h21.08A10.54,10.54,0,0,0,2148.249,1147.052Z" transform="translate(-2136.578 -1135.93)" fill="#f09" stroke="#000c7a" stroke-width="2.4"/>
    <path id="패스_59" data-name="패스 59" d="M2148.249,1147.052a10.54,10.54,0,0,0-10.54,10.54h21.08A10.54,10.54,0,0,0,2148.249,1147.052Z" transform="translate(-2136.578 -1135.93)" fill="none" stroke="#000c7a" stroke-linecap="round" stroke-linejoin="round" stroke-width="2.4"/>
    <line id="선_48" data-name="선 48" y2="2.001" transform="translate(11.671 26.228)" fill="none" stroke="#000c7a" stroke-linecap="round" stroke-linejoin="round" stroke-width="2.4"/>
    <line id="선_49" data-name="선 49" y2="2.001" transform="translate(11.671 33.093)" fill="none" stroke="#000c7a" stroke-linecap="round" stroke-linejoin="round" stroke-width="2.4"/>
    <line id="선_50" data-name="선 50" x2="1.415" y2="1.415" transform="translate(17.073 26.228)" fill="none" stroke="#000c7a" stroke-linecap="round" stroke-linejoin="round" stroke-width="2.4"/>
    <line id="선_51" data-name="선 51" x2="1.415" y2="1.415" transform="translate(21.927 31.082)" fill="none" stroke="#000c7a" stroke-linecap="round" stroke-linejoin="round" stroke-width="2.4"/>
    <line id="선_52" data-name="선 52" x1="1.415" y2="1.415" transform="translate(4.854 26.228)" fill="none" stroke="#000c7a" stroke-linecap="round" stroke-linejoin="round" stroke-width="2.4"/>
    <line id="선_53" data-name="선 53" x1="1.415" y2="1.415" transform="translate(0 31.082)" fill="none" stroke="#000c7a" stroke-linecap="round" stroke-linejoin="round" stroke-width="2.4"/>
    <path id="패스_60" data-name="패스 60" d="M2176.458,1116.612v-5.447s-.826-5.105,5.4-5.105h12.055s4.56-.126,4.56,5.276v48.341" transform="translate(-2164.787 -1106.06)" fill="none" stroke="#000c7a" stroke-linecap="round" stroke-linejoin="round" stroke-width="2.4"/>
  </g>
</svg>
