<svg xmlns="http://www.w3.org/2000/svg" width="47.628" height="54.81" viewBox="0 0 47.628 54.81">
  <g id="그룹_38723" data-name="그룹 38723" transform="translate(1.2 1.2)">
    <path id="패스_73" data-name="패스 73" d="M955.249,1229.64c12.49,0,22.614-9.353,22.614-20.891H932.635C932.635,1220.287,942.76,1229.64,955.249,1229.64Z" transform="translate(-932.635 -1177.23)" fill="none" stroke="#000c7a" stroke-width="2.4"/>
    <path id="패스_74" data-name="패스 74" d="M955.249,1229.64c12.49,0,22.614-9.353,22.614-20.891H932.635C932.635,1220.287,942.76,1229.64,955.249,1229.64Z" transform="translate(-932.635 -1177.23)" fill="none" stroke="#000c7a" stroke-linecap="round" stroke-linejoin="round" stroke-width="2.4"/>
    <path id="패스_75" data-name="패스 75" d="M985.4,1193.461H959.855l-2.479-6.479h30.5Z" transform="translate(-950.012 -1161.941)" fill="none" stroke="#000c7a" stroke-linecap="round" stroke-linejoin="round" stroke-width="2.4"/>
    <path id="패스_76" data-name="패스 76" d="M1004.2,1146.021V1131.91a3.247,3.247,0,0,0-6.494,0v14.112Z" transform="translate(-978.336 -1120.981)" fill="none" stroke="#000c7a" stroke-linecap="round" stroke-linejoin="round" stroke-width="2.4"/>
    <path id="패스_78" data-name="패스 78" d="M1008.612,1109.932a7.1,7.1,0,0,1,7.079-7.079h1.093a7.1,7.1,0,0,1,7.079,7.079" transform="translate(-985.998 -1102.853)" fill="none" stroke="#f09" stroke-linecap="round" stroke-linejoin="round" stroke-width="2.4" stroke-dasharray="0 3"/>
    <path id="패스_79" data-name="패스 79" d="M972.626,1109.932a7.1,7.1,0,0,0-7.079-7.079h-1.092a7.1,7.1,0,0,0-7.079,7.079" transform="translate(-950.012 -1102.853)" fill="none" stroke="#f09" stroke-linecap="round" stroke-linejoin="round" stroke-width="2.4" stroke-dasharray="0 3"/>
  </g>
</svg>
