<svg xmlns="http://www.w3.org/2000/svg" width="55.382" height="60.721" viewBox="0 0 55.382 60.721">
  <g id="그룹_38725" data-name="그룹 38725" transform="translate(1.2 1.2)">
    <rect id="사각형_58" data-name="사각형 58" width="52.982" height="58.321" rx="10" transform="translate(0 0)" fill="none" stroke="#000c7a" stroke-linecap="round" stroke-linejoin="round" stroke-width="2.4"/>
    <circle id="타원_8" data-name="타원 8" cx="18.405" cy="18.405" r="18.405" transform="translate(8.086 13.425)" fill="none" stroke="#000c7a" stroke-linecap="round" stroke-linejoin="round" stroke-width="2.4"/>
    <path id="패스_83" data-name="패스 83" d="M400.811,1215.646a5,5,0,0,1-4.3-2.455,4.994,4.994,0,0,1-8.6,0,4.988,4.988,0,0,1-7.247,1.489,11.747,11.747,0,0,0,23.406-.245A4.98,4.98,0,0,1,400.811,1215.646Z" transform="translate(-365.866 -1181.72)" fill="#f09" stroke="#000c7a" stroke-width="2.4"/>
    <path id="패스_84" data-name="패스 84" d="M400.811,1215.646a5,5,0,0,1-4.3-2.455,4.994,4.994,0,0,1-8.6,0,4.988,4.988,0,0,1-7.247,1.489,11.747,11.747,0,0,0,23.406-.245A4.98,4.98,0,0,1,400.811,1215.646Z" transform="translate(-365.866 -1181.72)" fill="none" stroke="#000c7a" stroke-linecap="round" stroke-linejoin="round" stroke-width="2.4"/>
    <circle id="타원_9" data-name="타원 9" cx="2.834" cy="2.834" r="2.834" transform="translate(6.106 4.748)" fill="#1a1311" stroke="#000c7a" stroke-width="2.4"/>
    <circle id="타원_10" data-name="타원 10" cx="2.834" cy="2.834" r="2.834" transform="translate(15.5 4.748)" fill="#1a1311" stroke="#000c7a" stroke-width="2.4"/>
  </g>
</svg>
