<svg xmlns="http://www.w3.org/2000/svg" width="39.46" height="47.803" viewBox="0 0 39.46 47.803">
  <g id="그룹_38797" data-name="그룹 38797" transform="translate(-1031.677 -2385.192)">
    <g id="에어펌프" transform="translate(971.547 2865.192)">
      <path id="패스_19505" data-name="패스 19505" d="M72.077-479.854c-.436.239-.52.54-.53,1.9a6.028,6.028,0,0,0,.125,1.538c.249.561.374.572,4.552.572,4.3,0,4.344-.01,4.583-.675l.135-.364h3.076v8.313H82.863a8.734,8.734,0,0,0-1.59.125,2.191,2.191,0,0,0-1.289,1.289c-.094.333-.125,3.377-.125,13.021v12.585h-.624c-.727,0-1.153.177-1.33.572a5.389,5.389,0,0,0-.125,1.424v1.153l-.873-.052a2.053,2.053,0,0,1-1.943-.987l-.249-.395-.052-8.106-.052-8.106-.322-.675a4,4,0,0,0-2-2.047,2.809,2.809,0,0,0-1.787-.395,2.874,2.874,0,0,0-1.787.384,3.994,3.994,0,0,0-1.985,2.037l-.333.7-.052,5.508-.052,5.508-.249.395a2.734,2.734,0,0,1-.665.675,1.616,1.616,0,0,1-1.1.281,1.855,1.855,0,0,1-1.756-.914l-.281-.416-.052-4.167c-.031-2.3-.094-4.25-.145-4.354a1.259,1.259,0,0,0-.894-.488,1.1,1.1,0,0,0-.925.6,30.03,30.03,0,0,0-.094,4.5l.031,4.209.395.79a4,4,0,0,0,2.047,2,2.876,2.876,0,0,0,1.673.322A2.794,2.794,0,0,0,66.06-442a4,4,0,0,0,2-2.047l.322-.675.052-5.508.052-5.508.249-.395a2.733,2.733,0,0,1,.665-.675,1.576,1.576,0,0,1,1.112-.281,1.576,1.576,0,0,1,1.112.281,2.733,2.733,0,0,1,.665.675l.249.395.052,8.116.052,8.106.395.79a3.956,3.956,0,0,0,2.037,1.985,3.582,3.582,0,0,0,1.683.364l1.029.052v2.047H74.56c-3.5,0-3.679.021-3.928.572a.994.994,0,0,0,0,.935c.27.6-.5.572,14.424.572,11.68,0,13.769-.021,14.019-.146a1.034,1.034,0,0,0,0-1.787,14.751,14.751,0,0,0-3.523-.145H92.33V-437.5a20.607,20.607,0,0,0-.125-3.481c-.177-.395-.6-.572-1.33-.572h-.624v-12.585c0-9.644-.031-12.688-.125-13.021a2.191,2.191,0,0,0-1.289-1.289,8.734,8.734,0,0,0-1.59-.125H86.1v-8.313h3.076l.135.364c.239.665.281.675,4.583.675,4.178,0,4.3-.01,4.552-.572a9.166,9.166,0,0,0,0-3.014c-.249-.561-.374-.572-4.552-.572-4.3,0-4.344.01-4.583.675l-.135.364h-8.23l-.135-.364c-.239-.665-.281-.675-4.6-.675A21.846,21.846,0,0,0,72.077-479.854Zm16.1,25.834v12.47H81.939v-24.94h6.235Zm2.078,17.147v2.6H79.86v-5.2H90.252Z" transform="translate(0)" fill="#041a88"/>
    </g>
    <rect id="사각형_24238" data-name="사각형 24238" width="4" height="19" transform="translate(1054.5 2402)" fill="#f09"/>
  </g>
</svg>
