<svg xmlns="http://www.w3.org/2000/svg" width="60.959" height="50.392" viewBox="0 0 60.959 50.392">
  <g id="그룹_38708" data-name="그룹 38708" transform="translate(1.202 1.2)">
    <path id="패스_25" data-name="패스 25" d="M97.7,1963.93a23.251,23.251,0,0,1-43.241,7.37" transform="translate(-45.219 -1935.263)" fill="none" stroke="#000c7a" stroke-linecap="round" stroke-linejoin="round" stroke-width="2.4"/>
    <path id="패스_26" data-name="패스 26" d="M72.59,1869.642a23.25,23.25,0,0,1,35.177,5.18" transform="translate(-58.434 -1862.304)" fill="none" stroke="#000c7a" stroke-linecap="round" stroke-linejoin="round" stroke-width="2.4"/>
    <circle id="타원_1" data-name="타원 1" cx="15.403" cy="15.403" r="15.403" transform="translate(14.157 9.344)" fill="none" stroke="#000c7a" stroke-width="2.4"/>
    <circle id="타원_2" data-name="타원 2" cx="15.403" cy="15.403" r="15.403" transform="translate(14.157 9.344)" fill="none" stroke="#f09" stroke-linecap="round" stroke-linejoin="round" stroke-width="2.4"/>
    <path id="패스_27" data-name="패스 27" d="M211.46,1905.123v-46.851s-9.225.813-9.225,12.518v16.149h4.613v18.184Z" transform="translate(-152.904 -1858.272)" fill="none" stroke="#000c7a" stroke-linecap="round" stroke-linejoin="round" stroke-width="2.4"/>
    <path id="패스_28" data-name="패스 28" d="M20.416,1858.272v12.722s-.174,6.4,4.705,6.4v27.732h4.531v-27.732c4.88,0,4.705-6.4,4.705-6.4v-12.722" transform="translate(-20.415 -1858.272)" fill="none" stroke="#000c7a" stroke-linecap="round" stroke-linejoin="round" stroke-width="2.4"/>
    <line id="선_15" data-name="선 15" y2="11.984" transform="translate(9.76 0)" fill="none" stroke="#000c7a" stroke-linecap="round" stroke-linejoin="round" stroke-width="2.4"/>
    <line id="선_16" data-name="선 16" y2="11.984" transform="translate(4.88 0)" fill="none" stroke="#000c7a" stroke-linecap="round" stroke-linejoin="round" stroke-width="2.4"/>
  </g>
</svg>
