<svg xmlns="http://www.w3.org/2000/svg" width="54.539" height="53.948" viewBox="0 0 54.539 53.948">
  <g id="그룹_38718" data-name="그룹 38718" transform="translate(1.2 1.386)">
    <path id="패스_51" data-name="패스 51" d="M2408.086,1132.919v-13.085l-11.332-6.543-11.332,6.543v13.085l11.332,6.543Z" transform="translate(-2385.422 -1113.292)" fill="#f09" stroke="#000c7a" stroke-width="2.4"/>
    <path id="패스_52" data-name="패스 52" d="M2408.086,1132.919v-13.085l-11.332-6.543-11.332,6.543v13.085l11.332,6.543Z" transform="translate(-2385.422 -1113.292)" fill="none" stroke="#000c7a" stroke-linecap="round" stroke-linejoin="round" stroke-width="2.4"/>
    <path id="패스_53" data-name="패스 53" d="M2404.312,1149.463l6.207,3.584,6.207-3.584" transform="translate(-2399.187 -1139.649)" fill="none" stroke="#000c7a" stroke-linecap="round" stroke-linejoin="round" stroke-width="2.4"/>
    <line id="선_45" data-name="선 45" y1="6.281" transform="translate(11.332 13.398)" fill="none" stroke="#000c7a" stroke-linecap="round" stroke-linejoin="round" stroke-width="2.4"/>
    <path id="패스_54" data-name="패스 54" d="M2516.721,1132.919v-13.085l-11.332-6.543-11.332,6.543v13.085l11.332,6.543Z" transform="translate(-2464.582 -1113.292)" fill="none" stroke="#000c7a" stroke-linecap="round" stroke-linejoin="round" stroke-width="2.4"/>
    <path id="패스_55" data-name="패스 55" d="M2512.946,1149.463l6.207,3.584,6.208-3.584" transform="translate(-2478.346 -1139.649)" fill="none" stroke="#000c7a" stroke-linecap="round" stroke-linejoin="round" stroke-width="2.4"/>
    <line id="선_46" data-name="선 46" y1="6.281" transform="translate(40.807 13.398)" fill="none" stroke="#000c7a" stroke-linecap="round" stroke-linejoin="round" stroke-width="2.4"/>
    <path id="패스_56" data-name="패스 56" d="M2461.823,1225.768v-13.085l-11.332-6.543-11.332,6.543v13.085l11.332,6.543Z" transform="translate(-2424.578 -1180.949)" fill="none" stroke="#000c7a" stroke-linecap="round" stroke-linejoin="round" stroke-width="2.4"/>
    <path id="패스_57" data-name="패스 57" d="M2458.048,1242.311l6.207,3.584,6.207-3.584" transform="translate(-2438.343 -1207.306)" fill="none" stroke="#000c7a" stroke-linecap="round" stroke-linejoin="round" stroke-width="2.4"/>
    <line id="선_47" data-name="선 47" y1="6.281" transform="translate(25.912 38.589)" fill="none" stroke="#000c7a" stroke-linecap="round" stroke-linejoin="round" stroke-width="2.4"/>
  </g>
</svg>
