<svg xmlns="http://www.w3.org/2000/svg" width="251.404" height="264.65" viewBox="0 0 251.404 264.65">
  <defs>
    <style>
      .cls-1 {
        fill: #0c1267;
      }

      .cls-2 {
        fill: #ff6b24;
      }
    </style>
  </defs>
  <g id="그룹_38799" data-name="그룹 38799" transform="translate(-1407.921 -3608.226)">
    <path id="패스_2125" data-name="패스 2125" class="cls-1" d="M397.682,292.8a294.792,294.792,0,0,0,39.729-10.846,251.8,251.8,0,0,0,36.84-16.016,151.072,151.072,0,0,0,30.971-21.586,94.958,94.958,0,0,0,11.541-12.795,73.217,73.217,0,0,0,7.795-13.569,26.416,26.416,0,1,1,44.159,27.882l-1.269,1.439a124.415,124.415,0,0,1-19.275,17.734A139.287,139.287,0,0,1,527.054,277.7a185.584,185.584,0,0,1-43.509,14.415,274.019,274.019,0,0,1-43.226,5.257,303.448,303.448,0,0,1-42.535-.971,1.819,1.819,0,0,1-.174-3.6Z" transform="matrix(0.788, -0.616, 0.616, 0.788, 971.326, 3803.087)"/>
    <path id="패스_2126" data-name="패스 2126" class="cls-2" d="M398.778,248.962a150.3,150.3,0,0,0,63.9,9.577l3.863-.238,3.844-.506c2.545-.381,5.061-.627,7.549-1.1,4.977-1.129,9.842-1.983,14.547-3.637,9.46-2.647,18.21-7.036,26.439-11.428a29.341,29.341,0,1,1,16.7,55.092l-.43.034c-13.463,1.258-26.73,1.824-39.74.211-6.481-.476-12.852-1.862-19.094-3.032-3.116-.672-6.182-1.594-9.23-2.387-1.518-.423-3.04-.8-4.539-1.265l-4.449-1.537A168.025,168.025,0,0,1,424.9,273.336a152.678,152.678,0,0,1-28.207-21.428,1.825,1.825,0,0,1,1.945-3Z" transform="matrix(0.788, -0.616, 0.616, 0.788, 1032.956, 3881.972)"/>
  </g>
</svg>
