<svg xmlns="http://www.w3.org/2000/svg" xmlns:xlink="http://www.w3.org/1999/xlink" width="247.56" height="548.676" viewBox="0 0 247.56 548.676">
  <defs>
    <style>
      .cls-1 {
        fill: #000c7a;
      }

      .cls-2 {
        clip-path: url(#clip-path);
      }

      .cls-3 {
        clip-path: url(#clip-path-2);
      }

      .cls-4 {
        clip-path: url(#clip-path-3);
      }

      .cls-5 {
        clip-path: url(#clip-path-4);
      }

      .cls-6 {
        clip-path: url(#clip-path-9);
      }

      .cls-7 {
        clip-path: url(#clip-path-12);
      }
    </style>
    <clipPath id="clip-path">
      <rect id="사각형_23916" data-name="사각형 23916" class="cls-1" width="247.56" height="68.311" transform="translate(0 0)"/>
    </clipPath>
    <clipPath id="clip-path-2">
      <rect id="사각형_23922" data-name="사각형 23922" class="cls-1" width="247.56" height="68.311"/>
    </clipPath>
    <clipPath id="clip-path-3">
      <rect id="사각형_23928" data-name="사각형 23928" class="cls-1" width="247.56" height="69.404" transform="translate(0 0)"/>
    </clipPath>
    <clipPath id="clip-path-4">
      <rect id="사각형_23934" data-name="사각형 23934" class="cls-1" width="247.56" height="68.858"/>
    </clipPath>
    <clipPath id="clip-path-9">
      <rect id="사각형_23964" data-name="사각형 23964" class="cls-1" width="247.56" height="68.858" transform="translate(0 0)"/>
    </clipPath>
    <clipPath id="clip-path-12">
      <rect id="사각형_23982" data-name="사각형 23982" class="cls-1" width="247.56" height="69.404"/>
    </clipPath>
  </defs>
  <g id="그룹_38796" data-name="그룹 38796" transform="translate(-1024.334 502.411)">
    <g id="그룹_104" data-name="그룹 104" class="cls-2" transform="translate(1024.334 -502.411)">
      <g id="마스크_그룹_3-5" data-name="마스크 그룹 3-5" transform="translate(-0.692 21.483)">
        <g id="그룹_16-5" data-name="그룹 16-5">
          <path id="패스_7845-5" data-name="패스 7845-5" class="cls-1" d="M679.078-282.8c-15.757,0-23.745-5.089-31.471-10.012-7.878-5.018-15.317-9.758-30.6-9.758s-22.721,4.74-30.6,9.758c-7.727,4.923-15.716,10.012-31.47,10.012s-23.742-5.089-31.468-10.012c-7.879-5.018-15.316-9.758-30.6-9.758v-1.624c15.757,0,23.742,5.089,31.468,10.012,7.879,5.018,15.316,9.758,30.6,9.758s22.721-4.74,30.6-9.758c7.727-4.923,15.716-10.012,31.47-10.012s23.744,5.089,31.471,10.012c7.879,5.018,15.317,9.758,30.6,9.758s22.721-4.74,30.6-9.758c7.726-4.923,15.716-10.012,31.471-10.012v1.624c-15.28,0-22.722,4.74-30.6,9.758C702.821-287.887,694.831-282.8,679.078-282.8Z" transform="translate(-492.877 304.192)"/>
          <path id="패스_7846-5" data-name="패스 7846-5" class="cls-1" d="M679.078-278.062c-15.757,0-23.745-5.089-31.471-10.012-7.878-5.018-15.317-9.757-30.6-9.757s-22.721,4.74-30.6,9.757c-7.727,4.923-15.716,10.012-31.47,10.012s-23.742-5.089-31.468-10.012c-7.879-5.018-15.316-9.757-30.6-9.757v-1.624c15.757,0,23.742,5.089,31.468,10.012,7.879,5.018,15.316,9.758,30.6,9.758s22.721-4.74,30.6-9.758c7.727-4.923,15.716-10.012,31.47-10.012s23.744,5.089,31.471,10.012c7.879,5.018,15.317,9.758,30.6,9.758s22.721-4.74,30.6-9.758c7.726-4.923,15.716-10.012,31.471-10.012v1.624c-15.28,0-22.722,4.74-30.6,9.758C702.821-283.152,694.831-278.062,679.078-278.062Z" transform="translate(-492.877 305.474)"/>
        </g>
      </g>
    </g>
    <g id="그룹_116" data-name="그룹 116" class="cls-3" transform="translate(1024.334 -467.982)">
      <g id="마스크_그룹_3-11" data-name="마스크 그룹 3-11" transform="translate(-0.692 21.363)">
        <g id="그룹_16-11" data-name="그룹 16-11">
          <path id="패스_7845-11" data-name="패스 7845-11" class="cls-1" d="M679.078-255.8c-15.757,0-23.745-5.089-31.471-10.012-7.878-5.018-15.317-9.758-30.6-9.758s-22.721,4.74-30.6,9.758c-7.727,4.923-15.716,10.012-31.47,10.012s-23.742-5.089-31.468-10.012c-7.879-5.018-15.316-9.758-30.6-9.758v-1.624c15.757,0,23.742,5.089,31.468,10.012,7.879,5.018,15.316,9.758,30.6,9.758s22.721-4.74,30.6-9.758c7.727-4.923,15.716-10.012,31.47-10.012s23.744,5.089,31.471,10.012c7.879,5.018,15.317,9.758,30.6,9.758s22.721-4.74,30.6-9.758c7.726-4.923,15.716-10.012,31.471-10.012v1.624c-15.28,0-22.722,4.74-30.6,9.758C702.821-260.887,694.831-255.8,679.078-255.8Z" transform="translate(-492.877 277.192)"/>
          <path id="패스_7846-11" data-name="패스 7846-11" class="cls-1" d="M679.078-251.062c-15.757,0-23.745-5.089-31.471-10.012-7.878-5.018-15.317-9.757-30.6-9.757s-22.721,4.74-30.6,9.757c-7.727,4.923-15.716,10.012-31.47,10.012s-23.742-5.089-31.468-10.012c-7.879-5.018-15.316-9.757-30.6-9.757v-1.624c15.757,0,23.742,5.089,31.468,10.012,7.879,5.018,15.316,9.758,30.6,9.758s22.721-4.74,30.6-9.758c7.727-4.923,15.716-10.012,31.47-10.012s23.744,5.089,31.471,10.012c7.879,5.018,15.317,9.758,30.6,9.758s22.721-4.74,30.6-9.758c7.726-4.923,15.716-10.012,31.471-10.012v1.624c-15.28,0-22.722,4.74-30.6,9.758C702.821-256.152,694.831-251.062,679.078-251.062Z" transform="translate(-492.877 278.474)"/>
        </g>
      </g>
    </g>
    <g id="그룹_128" data-name="그룹 128" class="cls-4" transform="translate(1024.334 -434.1)">
      <g id="마스크_그룹_3-17" data-name="마스크 그룹 3-17" transform="translate(-0.692 21.791)">
        <g id="그룹_16-17" data-name="그룹 16-17">
          <path id="패스_7845-17" data-name="패스 7845-17" class="cls-1" d="M679.078-228.8c-15.757,0-23.745-5.089-31.471-10.012-7.878-5.018-15.317-9.758-30.6-9.758s-22.721,4.74-30.6,9.758c-7.727,4.923-15.716,10.012-31.47,10.012s-23.742-5.089-31.468-10.012c-7.879-5.018-15.316-9.758-30.6-9.758v-1.624c15.757,0,23.742,5.089,31.468,10.012,7.879,5.018,15.316,9.758,30.6,9.758s22.721-4.74,30.6-9.758c7.727-4.923,15.716-10.012,31.47-10.012s23.744,5.089,31.471,10.012c7.879,5.018,15.317,9.758,30.6,9.758s22.721-4.74,30.6-9.758c7.726-4.923,15.716-10.012,31.471-10.012v1.624c-15.28,0-22.722,4.74-30.6,9.758C702.821-233.887,694.831-228.8,679.078-228.8Z" transform="translate(-492.877 250.192)"/>
          <path id="패스_7846-17" data-name="패스 7846-17" class="cls-1" d="M679.078-224.062c-15.757,0-23.745-5.089-31.471-10.012-7.878-5.018-15.317-9.757-30.6-9.757s-22.721,4.74-30.6,9.757c-7.727,4.923-15.716,10.012-31.47,10.012s-23.742-5.089-31.468-10.012c-7.879-5.018-15.316-9.757-30.6-9.757v-1.624c15.757,0,23.742,5.089,31.468,10.012,7.879,5.018,15.316,9.758,30.6,9.758s22.721-4.74,30.6-9.758c7.727-4.923,15.716-10.012,31.47-10.012s23.744,5.089,31.471,10.012c7.879,5.018,15.317,9.758,30.6,9.758s22.721-4.74,30.6-9.758c7.726-4.923,15.716-10.012,31.471-10.012v1.624c-15.28,0-22.722,4.74-30.6,9.758C702.821-229.152,694.831-224.062,679.078-224.062Z" transform="translate(-492.877 251.474)"/>
        </g>
      </g>
    </g>
    <g id="그룹_140" data-name="그룹 140" class="cls-5" transform="translate(1024.334 -399.671)">
      <g id="마스크_그룹_3-23" data-name="마스크 그룹 3-23" transform="translate(-0.692 21.671)">
        <g id="그룹_16-23" data-name="그룹 16-23">
          <path id="패스_7845-23" data-name="패스 7845-23" class="cls-1" d="M679.078-201.8c-15.757,0-23.745-5.089-31.471-10.012-7.878-5.018-15.317-9.758-30.6-9.758s-22.721,4.74-30.6,9.758c-7.727,4.923-15.716,10.012-31.47,10.012s-23.742-5.089-31.468-10.012c-7.879-5.018-15.316-9.758-30.6-9.758v-1.624c15.757,0,23.742,5.089,31.468,10.012,7.879,5.018,15.316,9.758,30.6,9.758s22.721-4.74,30.6-9.758c7.727-4.923,15.716-10.012,31.47-10.012s23.744,5.089,31.471,10.012c7.879,5.018,15.317,9.758,30.6,9.758s22.721-4.74,30.6-9.758c7.726-4.923,15.716-10.012,31.471-10.012v1.624c-15.28,0-22.722,4.74-30.6,9.758C702.821-206.887,694.831-201.8,679.078-201.8Z" transform="translate(-492.877 223.192)"/>
          <path id="패스_7846-23" data-name="패스 7846-23" class="cls-1" d="M679.078-197.062c-15.757,0-23.745-5.089-31.471-10.012-7.878-5.018-15.317-9.757-30.6-9.757s-22.721,4.74-30.6,9.757c-7.727,4.923-15.716,10.012-31.47,10.012s-23.742-5.089-31.468-10.012c-7.879-5.018-15.316-9.757-30.6-9.757v-1.624c15.757,0,23.742,5.089,31.468,10.012,7.879,5.018,15.316,9.758,30.6,9.758s22.721-4.74,30.6-9.758c7.727-4.923,15.716-10.012,31.47-10.012s23.744,5.089,31.471,10.012c7.879,5.018,15.317,9.758,30.6,9.758s22.721-4.74,30.6-9.758c7.726-4.923,15.716-10.012,31.471-10.012v1.624c-15.28,0-22.722,4.74-30.6,9.758C702.821-202.152,694.831-197.062,679.078-197.062Z" transform="translate(-492.877 224.474)"/>
        </g>
      </g>
    </g>
    <g id="그룹_152" data-name="그룹 152" class="cls-2" transform="translate(1024.334 -364.695)">
      <g id="마스크_그룹_3-29" data-name="마스크 그룹 3-29" transform="translate(-0.692 21.006)">
        <g id="그룹_16-29" data-name="그룹 16-29">
          <path id="패스_7845-29" data-name="패스 7845-29" class="cls-1" d="M679.078-174.8c-15.757,0-23.745-5.089-31.471-10.012-7.878-5.018-15.317-9.758-30.6-9.758s-22.721,4.74-30.6,9.758c-7.727,4.923-15.716,10.012-31.47,10.012s-23.742-5.089-31.468-10.012c-7.879-5.018-15.316-9.758-30.6-9.758v-1.624c15.757,0,23.742,5.089,31.468,10.012,7.879,5.018,15.316,9.758,30.6,9.758s22.721-4.74,30.6-9.758c7.727-4.923,15.716-10.012,31.47-10.012s23.744,5.089,31.471,10.012c7.879,5.018,15.317,9.758,30.6,9.758s22.721-4.74,30.6-9.758c7.726-4.923,15.716-10.012,31.471-10.012v1.624c-15.28,0-22.722,4.74-30.6,9.758C702.821-179.887,694.831-174.8,679.078-174.8Z" transform="translate(-492.877 196.192)"/>
          <path id="패스_7846-29" data-name="패스 7846-29" class="cls-1" d="M679.078-170.062c-15.757,0-23.745-5.089-31.471-10.012-7.878-5.018-15.317-9.757-30.6-9.757s-22.721,4.74-30.6,9.757c-7.727,4.923-15.716,10.012-31.47,10.012s-23.742-5.089-31.468-10.012c-7.879-5.018-15.316-9.757-30.6-9.757v-1.624c15.757,0,23.742,5.089,31.468,10.012,7.879,5.018,15.316,9.758,30.6,9.758s22.721-4.74,30.6-9.758c7.727-4.923,15.716-10.012,31.47-10.012s23.744,5.089,31.471,10.012c7.879,5.018,15.317,9.758,30.6,9.758s22.721-4.74,30.6-9.758c7.726-4.923,15.716-10.012,31.471-10.012v1.624c-15.28,0-22.722,4.74-30.6,9.758C702.821-175.152,694.831-170.062,679.078-170.062Z" transform="translate(-492.877 197.474)"/>
        </g>
      </g>
    </g>
    <g id="그룹_164" data-name="그룹 164" class="cls-5" transform="translate(1024.334 -330.813)">
      <g id="마스크_그룹_3-35" data-name="마스크 그룹 3-35" transform="translate(-0.692 21.433)">
        <g id="그룹_16-35" data-name="그룹 16-35">
          <path id="패스_7845-35" data-name="패스 7845-35" class="cls-1" d="M679.078-147.8c-15.757,0-23.745-5.089-31.471-10.012-7.878-5.018-15.317-9.758-30.6-9.758s-22.721,4.74-30.6,9.758c-7.727,4.923-15.716,10.012-31.47,10.012s-23.742-5.089-31.468-10.012c-7.879-5.018-15.316-9.758-30.6-9.758v-1.624c15.757,0,23.742,5.089,31.468,10.012,7.879,5.018,15.316,9.758,30.6,9.758s22.721-4.74,30.6-9.758c7.727-4.923,15.716-10.012,31.47-10.012s23.744,5.089,31.471,10.012c7.879,5.018,15.317,9.758,30.6,9.758s22.721-4.74,30.6-9.758c7.726-4.923,15.716-10.012,31.471-10.012v1.624c-15.28,0-22.722,4.74-30.6,9.758C702.821-152.887,694.831-147.8,679.078-147.8Z" transform="translate(-492.877 169.192)"/>
          <path id="패스_7846-35" data-name="패스 7846-35" class="cls-1" d="M679.078-143.062c-15.757,0-23.745-5.089-31.471-10.012-7.878-5.018-15.317-9.757-30.6-9.757s-22.721,4.74-30.6,9.757c-7.727,4.923-15.716,10.012-31.47,10.012s-23.742-5.089-31.468-10.012c-7.879-5.018-15.316-9.757-30.6-9.757v-1.624c15.757,0,23.742,5.089,31.468,10.012,7.879,5.018,15.316,9.758,30.6,9.758s22.721-4.74,30.6-9.758c7.727-4.923,15.716-10.012,31.47-10.012s23.744,5.089,31.471,10.012c7.879,5.018,15.317,9.758,30.6,9.758s22.721-4.74,30.6-9.758c7.726-4.923,15.716-10.012,31.471-10.012v1.624c-15.28,0-22.722,4.74-30.6,9.758C702.821-148.152,694.831-143.062,679.078-143.062Z" transform="translate(-492.877 170.474)"/>
        </g>
      </g>
    </g>
    <g id="그룹_176" data-name="그룹 176" class="cls-3" transform="translate(1024.334 -296.384)">
      <g id="마스크_그룹_3-41" data-name="마스크 그룹 3-41" transform="translate(-0.692 21.314)">
        <g id="그룹_16-41" data-name="그룹 16-41">
          <path id="패스_7845-41" data-name="패스 7845-41" class="cls-1" d="M679.078-120.8c-15.757,0-23.745-5.089-31.471-10.012-7.878-5.018-15.317-9.758-30.6-9.758s-22.721,4.74-30.6,9.758c-7.727,4.923-15.716,10.012-31.47,10.012s-23.742-5.089-31.468-10.012c-7.879-5.018-15.316-9.758-30.6-9.758v-1.624c15.757,0,23.742,5.089,31.468,10.012,7.879,5.018,15.316,9.758,30.6,9.758s22.721-4.74,30.6-9.758c7.727-4.923,15.716-10.012,31.47-10.012s23.744,5.089,31.471,10.012c7.879,5.018,15.317,9.758,30.6,9.758s22.721-4.74,30.6-9.758c7.726-4.923,15.716-10.012,31.471-10.012v1.624c-15.28,0-22.722,4.74-30.6,9.758C702.821-125.887,694.831-120.8,679.078-120.8Z" transform="translate(-492.877 142.192)"/>
          <path id="패스_7846-41" data-name="패스 7846-41" class="cls-1" d="M679.078-116.062c-15.757,0-23.745-5.089-31.471-10.012-7.878-5.018-15.317-9.757-30.6-9.757s-22.721,4.74-30.6,9.757c-7.727,4.923-15.716,10.012-31.47,10.012s-23.742-5.089-31.468-10.012c-7.879-5.018-15.316-9.757-30.6-9.757v-1.624c15.757,0,23.742,5.089,31.468,10.012,7.879,5.018,15.316,9.758,30.6,9.758s22.721-4.74,30.6-9.758c7.727-4.923,15.716-10.012,31.47-10.012s23.744,5.089,31.471,10.012c7.879,5.018,15.317,9.758,30.6,9.758s22.721-4.74,30.6-9.758c7.726-4.923,15.716-10.012,31.471-10.012v1.624c-15.28,0-22.722,4.74-30.6,9.758C702.821-121.152,694.831-116.062,679.078-116.062Z" transform="translate(-492.877 143.474)"/>
        </g>
      </g>
    </g>
    <g id="그룹_188" data-name="그룹 188" class="cls-3" transform="translate(1024.334 -261.955)">
      <g id="마스크_그룹_3-47" data-name="마스크 그룹 3-47" transform="translate(-0.692 21.195)">
        <g id="그룹_16-47" data-name="그룹 16-47">
          <path id="패스_7845-47" data-name="패스 7845-47" class="cls-1" d="M679.078-93.8c-15.757,0-23.745-5.089-31.471-10.012-7.878-5.018-15.317-9.758-30.6-9.758s-22.721,4.74-30.6,9.758C578.684-98.887,570.7-93.8,554.942-93.8S531.2-98.887,523.474-103.81c-7.879-5.018-15.316-9.758-30.6-9.758v-1.624c15.757,0,23.742,5.089,31.468,10.012,7.879,5.018,15.316,9.758,30.6,9.758s22.721-4.74,30.6-9.758c7.727-4.923,15.716-10.012,31.47-10.012s23.744,5.089,31.471,10.012c7.879,5.018,15.317,9.758,30.6,9.758s22.721-4.74,30.6-9.758c7.726-4.923,15.716-10.012,31.471-10.012v1.624c-15.28,0-22.722,4.74-30.6,9.758C702.821-98.887,694.831-93.8,679.078-93.8Z" transform="translate(-492.877 115.192)"/>
          <path id="패스_7846-47" data-name="패스 7846-47" class="cls-1" d="M679.078-89.062c-15.757,0-23.745-5.089-31.471-10.012-7.878-5.018-15.317-9.757-30.6-9.757s-22.721,4.74-30.6,9.757c-7.727,4.923-15.716,10.012-31.47,10.012S531.2-94.152,523.474-99.074c-7.879-5.018-15.316-9.757-30.6-9.757v-1.624c15.757,0,23.742,5.089,31.468,10.012,7.879,5.018,15.316,9.758,30.6,9.758s22.721-4.74,30.6-9.758c7.727-4.923,15.716-10.012,31.47-10.012s23.744,5.089,31.471,10.012c7.879,5.018,15.317,9.758,30.6,9.758s22.721-4.74,30.6-9.758c7.726-4.923,15.716-10.012,31.471-10.012v1.624c-15.28,0-22.722,4.74-30.6,9.758C702.821-94.152,694.831-89.062,679.078-89.062Z" transform="translate(-492.877 116.474)"/>
        </g>
      </g>
    </g>
    <g id="그룹_200" data-name="그룹 200" class="cls-6" transform="translate(1024.334 -228.073)">
      <g id="마스크_그룹_3-53" data-name="마스크 그룹 3-53" transform="translate(-0.692 21.622)">
        <g id="그룹_16-53" data-name="그룹 16-53">
          <path id="패스_7845-53" data-name="패스 7845-53" class="cls-1" d="M679.078-66.8c-15.757,0-23.745-5.089-31.471-10.012-7.878-5.018-15.317-9.758-30.6-9.758s-22.721,4.74-30.6,9.758C578.684-71.887,570.7-66.8,554.942-66.8S531.2-71.887,523.474-76.81c-7.879-5.018-15.316-9.758-30.6-9.758v-1.624c15.757,0,23.742,5.089,31.468,10.012,7.879,5.018,15.316,9.758,30.6,9.758s22.721-4.74,30.6-9.758c7.727-4.923,15.716-10.012,31.47-10.012S640.752-83.1,648.479-78.18c7.879,5.018,15.317,9.758,30.6,9.758s22.721-4.74,30.6-9.758c7.726-4.923,15.716-10.012,31.471-10.012v1.624c-15.28,0-22.722,4.74-30.6,9.758C702.821-71.887,694.831-66.8,679.078-66.8Z" transform="translate(-492.877 88.192)"/>
          <path id="패스_7846-53" data-name="패스 7846-53" class="cls-1" d="M679.078-62.062c-15.757,0-23.745-5.089-31.471-10.012-7.878-5.018-15.317-9.757-30.6-9.757s-22.721,4.74-30.6,9.757c-7.727,4.923-15.716,10.012-31.47,10.012S531.2-67.152,523.474-72.074c-7.879-5.018-15.316-9.757-30.6-9.757v-1.624c15.757,0,23.742,5.089,31.468,10.012,7.879,5.018,15.316,9.758,30.6,9.758s22.721-4.74,30.6-9.758c7.727-4.923,15.716-10.012,31.47-10.012s23.744,5.089,31.471,10.012c7.879,5.018,15.317,9.758,30.6,9.758s22.721-4.74,30.6-9.758c7.726-4.923,15.716-10.012,31.471-10.012v1.624c-15.28,0-22.722,4.74-30.6,9.758C702.821-67.152,694.831-62.062,679.078-62.062Z" transform="translate(-492.877 89.474)"/>
        </g>
      </g>
    </g>
    <g id="그룹_212" data-name="그룹 212" class="cls-3" transform="translate(1024.334 -193.644)">
      <g id="마스크_그룹_3-59" data-name="마스크 그룹 3-59" transform="translate(-0.692 21.503)">
        <g id="그룹_16-59" data-name="그룹 16-59">
          <path id="패스_7845-59" data-name="패스 7845-59" class="cls-1" d="M679.078-39.8c-15.757,0-23.745-5.089-31.471-10.012-7.878-5.018-15.317-9.758-30.6-9.758s-22.721,4.74-30.6,9.758C578.684-44.887,570.7-39.8,554.942-39.8S531.2-44.887,523.474-49.81c-7.879-5.018-15.316-9.758-30.6-9.758v-1.624c15.757,0,23.742,5.089,31.468,10.012,7.879,5.018,15.316,9.758,30.6,9.758s22.721-4.74,30.6-9.758c7.727-4.923,15.716-10.012,31.47-10.012S640.752-56.1,648.479-51.18c7.879,5.018,15.317,9.758,30.6,9.758s22.721-4.74,30.6-9.758c7.726-4.923,15.716-10.012,31.471-10.012v1.624c-15.28,0-22.722,4.74-30.6,9.758C702.821-44.887,694.831-39.8,679.078-39.8Z" transform="translate(-492.877 61.192)"/>
          <path id="패스_7846-59" data-name="패스 7846-59" class="cls-1" d="M679.078-35.062c-15.757,0-23.745-5.089-31.471-10.012-7.878-5.018-15.317-9.757-30.6-9.757s-22.721,4.74-30.6,9.757c-7.727,4.923-15.716,10.012-31.47,10.012S531.2-40.152,523.474-45.074c-7.879-5.018-15.316-9.757-30.6-9.757v-1.624c15.757,0,23.742,5.089,31.468,10.012,7.879,5.018,15.316,9.758,30.6,9.758s22.721-4.74,30.6-9.758c7.727-4.923,15.716-10.012,31.47-10.012s23.744,5.089,31.471,10.012c7.879,5.018,15.317,9.758,30.6,9.758s22.721-4.74,30.6-9.758c7.726-4.923,15.716-10.012,31.471-10.012v1.624c-15.28,0-22.722,4.74-30.6,9.758C702.821-40.152,694.831-35.062,679.078-35.062Z" transform="translate(-492.877 62.474)"/>
        </g>
      </g>
    </g>
    <g id="그룹_224" data-name="그룹 224" class="cls-6" transform="translate(1024.334 -159.215)">
      <g id="마스크_그룹_3-65" data-name="마스크 그룹 3-65" transform="translate(-0.692 21.383)">
        <g id="그룹_16-65" data-name="그룹 16-65">
          <path id="패스_7845-65" data-name="패스 7845-65" class="cls-1" d="M679.078-12.8c-15.757,0-23.745-5.089-31.471-10.012-7.878-5.018-15.317-9.758-30.6-9.758s-22.721,4.74-30.6,9.758C578.684-17.887,570.7-12.8,554.942-12.8S531.2-17.887,523.474-22.81c-7.879-5.018-15.316-9.758-30.6-9.758v-1.624c15.757,0,23.742,5.089,31.468,10.012,7.879,5.018,15.316,9.758,30.6,9.758s22.721-4.74,30.6-9.758c7.727-4.923,15.716-10.012,31.47-10.012S640.752-29.1,648.479-24.18c7.879,5.018,15.317,9.758,30.6,9.758s22.721-4.74,30.6-9.758c7.726-4.923,15.716-10.012,31.471-10.012v1.624c-15.28,0-22.722,4.74-30.6,9.758C702.821-17.887,694.831-12.8,679.078-12.8Z" transform="translate(-492.877 34.192)"/>
          <path id="패스_7846-65" data-name="패스 7846-65" class="cls-1" d="M679.078-8.062c-15.757,0-23.745-5.089-31.471-10.012-7.878-5.018-15.317-9.757-30.6-9.757s-22.721,4.74-30.6,9.757c-7.727,4.923-15.716,10.012-31.47,10.012S531.2-13.152,523.474-18.074c-7.879-5.018-15.316-9.757-30.6-9.757v-1.624c15.757,0,23.742,5.089,31.468,10.012,7.879,5.018,15.316,9.758,30.6,9.758s22.721-4.74,30.6-9.758c7.727-4.923,15.716-10.012,31.47-10.012s23.744,5.089,31.471,10.012c7.879,5.018,15.317,9.758,30.6,9.758s22.721-4.74,30.6-9.758c7.726-4.923,15.716-10.012,31.471-10.012v1.624c-15.28,0-22.722,4.74-30.6,9.758C702.821-13.152,694.831-8.062,679.078-8.062Z" transform="translate(-492.877 35.474)"/>
        </g>
      </g>
    </g>
    <g id="그룹_236" data-name="그룹 236" class="cls-7" transform="translate(1024.334 -125.333)">
      <g id="마스크_그룹_3-71" data-name="마스크 그룹 3-71" transform="translate(-0.692 21.811)">
        <g id="그룹_16-71" data-name="그룹 16-71" transform="translate(0 0)">
          <path id="패스_7845-71" data-name="패스 7845-71" class="cls-1" d="M679.078,14.2c-15.757,0-23.745-5.089-31.471-10.012-7.879-5.018-15.317-9.758-30.6-9.758s-22.721,4.74-30.6,9.758C578.684,9.113,570.7,14.2,554.942,14.2S531.2,9.113,523.474,4.19c-7.878-5.018-15.316-9.758-30.6-9.758V-7.192c15.757,0,23.742,5.089,31.468,10.012,7.879,5.018,15.316,9.758,30.6,9.758s22.721-4.74,30.6-9.758c7.727-4.923,15.716-10.012,31.47-10.012S640.752-2.1,648.479,2.82c7.879,5.018,15.317,9.758,30.6,9.758s22.721-4.74,30.6-9.758C717.4-2.1,725.392-7.192,741.147-7.192v1.624c-15.28,0-22.722,4.74-30.6,9.758C702.822,9.113,694.831,14.2,679.078,14.2Z" transform="translate(-492.877 7.192)"/>
          <path id="패스_7846-71" data-name="패스 7846-71" class="cls-1" d="M679.078,18.938c-15.757,0-23.745-5.089-31.471-10.012-7.878-5.018-15.317-9.757-30.6-9.757s-22.721,4.74-30.6,9.757c-7.727,4.923-15.716,10.012-31.47,10.012S531.2,13.848,523.474,8.926c-7.879-5.018-15.316-9.757-30.6-9.757V-2.455c15.757,0,23.742,5.089,31.468,10.012,7.879,5.018,15.316,9.758,30.6,9.758s22.721-4.74,30.6-9.758c7.727-4.923,15.716-10.012,31.47-10.012s23.744,5.089,31.471,10.012c7.879,5.018,15.317,9.758,30.6,9.758s22.721-4.74,30.6-9.758C717.4,2.634,725.392-2.455,741.147-2.455V-.831c-15.28,0-22.722,4.74-30.6,9.758C702.821,13.848,694.831,18.938,679.078,18.938Z" transform="translate(-492.877 8.474)"/>
        </g>
      </g>
    </g>
    <g id="그룹_248" data-name="그룹 248" class="cls-2" transform="translate(1024.334 -90.357)">
      <g id="마스크_그룹_3-77" data-name="마스크 그룹 3-77" transform="translate(-0.692 21.145)">
        <g id="그룹_16-77" data-name="그룹 16-77">
          <path id="패스_7845-77" data-name="패스 7845-77" class="cls-1" d="M679.078,41.2c-15.757,0-23.745-5.089-31.471-10.012-7.878-5.018-15.317-9.758-30.6-9.758s-22.721,4.74-30.6,9.758C578.684,36.113,570.7,41.2,554.942,41.2S531.2,36.113,523.474,31.19c-7.879-5.018-15.316-9.758-30.6-9.758V19.808c15.757,0,23.742,5.089,31.468,10.012,7.879,5.018,15.316,9.758,30.6,9.758s22.721-4.74,30.6-9.758c7.727-4.923,15.716-10.012,31.47-10.012S640.752,24.9,648.479,29.82c7.879,5.018,15.317,9.758,30.6,9.758s22.721-4.74,30.6-9.758c7.726-4.923,15.716-10.012,31.471-10.012v1.624c-15.28,0-22.722,4.74-30.6,9.758C702.821,36.113,694.831,41.2,679.078,41.2Z" transform="translate(-492.877 -19.808)"/>
          <path id="패스_7846-77" data-name="패스 7846-77" class="cls-1" d="M679.078,45.938c-15.757,0-23.745-5.089-31.471-10.012-7.878-5.018-15.317-9.757-30.6-9.757s-22.721,4.74-30.6,9.757c-7.727,4.923-15.716,10.012-31.47,10.012S531.2,40.848,523.474,35.926c-7.879-5.018-15.316-9.757-30.6-9.757V24.545c15.757,0,23.742,5.089,31.468,10.012,7.879,5.018,15.316,9.758,30.6,9.758s22.721-4.74,30.6-9.758c7.727-4.923,15.716-10.012,31.47-10.012s23.744,5.089,31.471,10.012c7.879,5.018,15.317,9.758,30.6,9.758s22.721-4.74,30.6-9.758c7.726-4.923,15.716-10.012,31.471-10.012v1.624c-15.28,0-22.722,4.74-30.6,9.758C702.821,40.848,694.831,45.938,679.078,45.938Z" transform="translate(-492.877 -18.526)"/>
        </g>
      </g>
    </g>
    <g id="그룹_260" data-name="그룹 260" class="cls-2" transform="translate(1024.334 -55.928)">
      <g id="마스크_그룹_3-83" data-name="마스크 그룹 3-83" transform="translate(-0.692 21.026)">
        <g id="그룹_16-83" data-name="그룹 16-83">
          <path id="패스_7845-83" data-name="패스 7845-83" class="cls-1" d="M679.078,68.2c-15.757,0-23.745-5.089-31.471-10.012-7.878-5.018-15.317-9.758-30.6-9.758s-22.721,4.74-30.6,9.758C578.684,63.113,570.7,68.2,554.942,68.2S531.2,63.113,523.474,58.19c-7.879-5.018-15.316-9.758-30.6-9.758V46.808c15.757,0,23.742,5.089,31.468,10.012,7.879,5.018,15.316,9.758,30.6,9.758s22.721-4.74,30.6-9.758c7.727-4.923,15.716-10.012,31.47-10.012S640.752,51.9,648.479,56.82c7.879,5.018,15.317,9.758,30.6,9.758s22.721-4.74,30.6-9.758c7.726-4.923,15.716-10.012,31.471-10.012v1.624c-15.28,0-22.722,4.74-30.6,9.758C702.821,63.113,694.831,68.2,679.078,68.2Z" transform="translate(-492.877 -46.808)"/>
          <path id="패스_7846-83" data-name="패스 7846-83" class="cls-1" d="M679.078,72.938c-15.757,0-23.745-5.089-31.471-10.012-7.878-5.018-15.317-9.757-30.6-9.757s-22.721,4.74-30.6,9.757c-7.727,4.923-15.716,10.012-31.47,10.012S531.2,67.848,523.474,62.926c-7.879-5.018-15.316-9.757-30.6-9.757V51.545c15.757,0,23.742,5.089,31.468,10.012,7.879,5.018,15.316,9.758,30.6,9.758s22.721-4.74,30.6-9.758c7.727-4.923,15.716-10.012,31.47-10.012s23.744,5.089,31.471,10.012c7.879,5.018,15.317,9.758,30.6,9.758s22.721-4.74,30.6-9.758c7.726-4.923,15.716-10.012,31.471-10.012v1.624c-15.28,0-22.722,4.74-30.6,9.758C702.821,67.848,694.831,72.938,679.078,72.938Z" transform="translate(-492.877 -45.526)"/>
        </g>
      </g>
    </g>
    <g id="그룹_272" data-name="그룹 272" class="cls-2" transform="translate(1024.334 -22.046)">
      <g id="마스크_그룹_3-89" data-name="마스크 그룹 3-89" transform="translate(-0.692 21.453)">
        <g id="그룹_16-89" data-name="그룹 16-89">
          <path id="패스_7845-89" data-name="패스 7845-89" class="cls-1" d="M679.078,95.2c-15.757,0-23.745-5.089-31.471-10.012-7.878-5.018-15.317-9.758-30.6-9.758s-22.721,4.74-30.6,9.758C578.684,90.113,570.7,95.2,554.942,95.2S531.2,90.113,523.474,85.19c-7.879-5.018-15.316-9.758-30.6-9.758V73.808c15.757,0,23.742,5.089,31.468,10.012,7.879,5.018,15.316,9.758,30.6,9.758s22.721-4.74,30.6-9.758c7.727-4.923,15.716-10.012,31.47-10.012S640.752,78.9,648.479,83.82c7.879,5.018,15.317,9.758,30.6,9.758s22.721-4.74,30.6-9.758c7.726-4.923,15.716-10.012,31.471-10.012v1.624c-15.28,0-22.722,4.74-30.6,9.758C702.821,90.113,694.831,95.2,679.078,95.2Z" transform="translate(-492.877 -73.808)"/>
          <path id="패스_7846-89" data-name="패스 7846-89" class="cls-1" d="M679.078,99.938c-15.757,0-23.745-5.089-31.471-10.012-7.878-5.018-15.317-9.757-30.6-9.757s-22.721,4.74-30.6,9.757c-7.727,4.923-15.716,10.012-31.47,10.012S531.2,94.848,523.474,89.926c-7.879-5.018-15.316-9.757-30.6-9.757V78.545c15.757,0,23.742,5.089,31.468,10.012,7.879,5.018,15.316,9.758,30.6,9.758s22.721-4.74,30.6-9.758c7.727-4.923,15.716-10.012,31.47-10.012s23.744,5.089,31.471,10.012c7.879,5.018,15.317,9.758,30.6,9.758s22.721-4.74,30.6-9.758c7.726-4.923,15.716-10.012,31.471-10.012v1.624c-15.28,0-22.722,4.74-30.6,9.758C702.821,94.848,694.831,99.938,679.078,99.938Z" transform="translate(-492.877 -72.526)"/>
        </g>
      </g>
    </g>
  </g>
</svg>