<svg xmlns="http://www.w3.org/2000/svg" width="110.904" height="111.006" viewBox="0 0 110.904 111.006">
  <defs>
    <style>
      .cls-1 {
        fill: none;
        stroke: #000c7a;
        stroke-width: 2.4px;
      }
    </style>
  </defs>
  <path id="Icon_weather-day-sunny" data-name="Icon weather-day-sunny" class="cls-1" d="M5.244,59.052a4.315,4.315,0,0,1,1.277-3.167,4.414,4.414,0,0,1,3.065-1.226H20.007a3.871,3.871,0,0,1,2.963,1.277,4.8,4.8,0,0,1,.051,6.232,3.8,3.8,0,0,1-2.963,1.277H9.637a4.169,4.169,0,0,1-3.065-1.277A4.249,4.249,0,0,1,5.244,59.052Zm14.61,35.4a4.732,4.732,0,0,1,1.175-3.116l7.509-7.305a3.928,3.928,0,0,1,3.014-1.175,4.327,4.327,0,0,1,3.065,1.175,3.819,3.819,0,0,1,1.226,2.912,4.819,4.819,0,0,1-1.226,3.269l-7.254,7.254a4.638,4.638,0,0,1-6.283,0A4.124,4.124,0,0,1,19.854,94.453Zm0-70.7a4.732,4.732,0,0,1,1.175-3.116A4.905,4.905,0,0,1,24.3,19.359a4.3,4.3,0,0,1,3.014,1.226l7.305,7.509a3.965,3.965,0,0,1,1.226,3.014A4.19,4.19,0,0,1,31.553,35.4a3.965,3.965,0,0,1-3.014-1.226L21.08,26.869A4.276,4.276,0,0,1,19.854,23.752Zm13.027,35.3A25.784,25.784,0,0,1,36.457,45.77a26.678,26.678,0,0,1,9.757-9.757,26.208,26.208,0,0,1,23.6-1.43,26.689,26.689,0,0,1,8.48,5.721A26.805,26.805,0,0,1,86.06,59.1a25.834,25.834,0,0,1-3.576,13.333,26.791,26.791,0,0,1-9.706,9.706,26.645,26.645,0,0,1-26.666,0,26.791,26.791,0,0,1-9.706-9.706A27.141,27.141,0,0,1,32.881,59.052Zm8.684,0A18.052,18.052,0,0,0,59.547,77.136,18.139,18.139,0,0,0,77.631,59.052a17.221,17.221,0,0,0-5.313-12.618,17.5,17.5,0,0,0-12.771-5.211,17.273,17.273,0,0,0-12.669,5.211A17.027,17.027,0,0,0,41.565,59.052ZM55.154,98.8a4.013,4.013,0,0,1,1.277-3.065A4.326,4.326,0,0,1,59.5,94.5a4.276,4.276,0,0,1,3.116,1.226A4.159,4.159,0,0,1,63.838,98.8v10.166a4.315,4.315,0,0,1-1.277,3.167,4.169,4.169,0,0,1-3.065,1.277,4.089,4.089,0,0,1-3.065-1.277,4.315,4.315,0,0,1-1.277-3.167V98.8Zm0-79.181V9.193a4.169,4.169,0,0,1,1.277-3.065A4.249,4.249,0,0,1,59.547,4.8a4.089,4.089,0,0,1,3.065,1.277,4.169,4.169,0,0,1,1.277,3.065V19.615a3.871,3.871,0,0,1-1.277,2.963,4.278,4.278,0,0,1-3.065,1.175,4.416,4.416,0,0,1-3.065-1.175A4.02,4.02,0,0,1,55.154,19.615Zm28.2,67.329a4.012,4.012,0,0,1,4.036-4.036,4.327,4.327,0,0,1,3.065,1.175l7.458,7.305A4.446,4.446,0,0,1,99.137,94.5a4.124,4.124,0,0,1-1.226,3.014,4.549,4.549,0,0,1-6.13,0l-7.254-7.254A4.973,4.973,0,0,1,83.352,86.944Zm0-55.784a3.961,3.961,0,0,1,1.175-3.014l7.254-7.509A4.3,4.3,0,0,1,94.8,19.41a4.013,4.013,0,0,1,3.065,1.277,4.169,4.169,0,0,1,1.277,3.065,4.313,4.313,0,0,1-1.226,3.167l-7.458,7.305a4.505,4.505,0,0,1-3.065,1.226,3.71,3.71,0,0,1-2.861-1.226A4.327,4.327,0,0,1,83.352,31.16ZM94.9,59.052a4.568,4.568,0,0,1,1.226-3.167,3.978,3.978,0,0,1,2.912-1.226h10.319a4.335,4.335,0,0,1,3.065,7.458,4.169,4.169,0,0,1-3.065,1.277H99.035a3.8,3.8,0,0,1-2.963-1.277A4.416,4.416,0,0,1,94.9,59.052Z" transform="translate(-4.044 -3.6)"/>
</svg>
