<svg xmlns="http://www.w3.org/2000/svg" xmlns:xlink="http://www.w3.org/1999/xlink" width="44.993" height="18.399" viewBox="0 0 44.993 18.399">
  <defs>
    <style>
      .cls-1 {
        fill: none;
      }

      .cls-2 {
        fill: #62afe3;
      }

      .cls-16, .cls-2, .cls-3, .cls-5, .cls-6, .cls-8 {
        fill-rule: evenodd;
      }

      .cls-3 {
        fill: #098fc5;
      }

      .cls-4 {
        fill: #001a3e;
      }

      .cls-5 {
        fill: #fff;
      }

      .cls-6 {
        fill: #080304;
      }

      .cls-7 {
        fill: #002a62;
      }

      .cls-8 {
        fill: #0099db;
      }

      .cls-9 {
        fill: #001a4e;
      }

      .cls-10 {
        opacity: 0.21;
      }

      .cls-10, .cls-12, .cls-14, .cls-17 {
        mix-blend-mode: screen;
        isolation: isolate;
      }

      .cls-11 {
        clip-path: url(#clip-path);
      }

      .cls-12 {
        opacity: 0.49;
      }

      .cls-13 {
        clip-path: url(#clip-path-2);
      }

      .cls-14 {
        opacity: 0.62;
      }

      .cls-15 {
        clip-path: url(#clip-path-3);
      }

      .cls-16 {
        fill: #3993d3;
      }

      .cls-18 {
        clip-path: url(#clip-path-4);
      }

      .cls-19 {
        clip-path: url(#clip-path-5);
      }

      .cls-20 {
        clip-path: url(#clip-path-6);
      }

      .cls-21 {
        clip-path: url(#clip-path-7);
      }
    </style>
    <clipPath id="clip-path">
      <rect id="사각형_6229" data-name="사각형 6229" class="cls-1" width="31.905" height="4.918"/>
    </clipPath>
    <clipPath id="clip-path-2">
      <rect id="사각형_6230" data-name="사각형 6230" class="cls-1" width="19.994" height="1.958"/>
    </clipPath>
    <clipPath id="clip-path-3">
      <rect id="사각형_6231" data-name="사각형 6231" class="cls-1" width="8.612" height="7.342"/>
    </clipPath>
    <clipPath id="clip-path-4">
      <rect id="사각형_6232" data-name="사각형 6232" class="cls-1" width="4.56" height="3.191"/>
    </clipPath>
    <clipPath id="clip-path-5">
      <rect id="사각형_6233" data-name="사각형 6233" class="cls-1" width="1.419" height="1.789"/>
    </clipPath>
    <clipPath id="clip-path-6">
      <rect id="사각형_6234" data-name="사각형 6234" class="cls-1" width="4.675" height="5.455"/>
    </clipPath>
    <clipPath id="clip-path-7">
      <rect id="사각형_6235" data-name="사각형 6235" class="cls-1" width="9.693" height="5.248"/>
    </clipPath>
  </defs>
  <g id="그룹_13455" data-name="그룹 13455" transform="translate(0)">
    <path id="패스_8000" data-name="패스 8000" class="cls-2" d="M541.575,465.605c.763-.108.163-1.393-1.389-2.553s-2.779-.851-2.043-1.238a90.673,90.673,0,0,1,23.046-2.939c10.216.232,10.951,4.409,12.749,7.349s1.635,3.326,2.125,2.785,1.471.387-.082,3.094-6.047,4.565-13.156,4.951-22.475.386-23.7-1.392,1.064-3.017,2.126-3.946-.247-1.392-1.144-.542-3.514,3.482-4.822,2.786a6.451,6.451,0,0,1-3.283-7.1c.9-4.023,2.547-5.274,4.753-4.19s3.187,3.171,4.822,2.94" transform="translate(-531.83 -458.862)"/>
    <path id="패스_8001" data-name="패스 8001" class="cls-3" d="M555.881,481.163c-7.11.387-22.475.387-23.7-1.392-1.175-1.705.876-2.913,1.983-3.827a6.353,6.353,0,0,0-1.026,2.276c-.083,1.1,1,.473,1.833.079s2.082-1.262,9,.71,19.993.078,23.158-1.972c2.759-1.787,2.607-3.573,2.357-4.055.436.1.766,1.12-.445,3.231-1.553,2.708-6.048,4.564-13.157,4.95" transform="translate(-524.887 -462.971)"/>
    <path id="패스_8002" data-name="패스 8002" class="cls-4" d="M539.273,466.6c-1.456.321-3.255,2.811-2.313,6.023s3.855,2.811,5.91.4.257-4.9-.685-5.863-2.913-.562-2.913-.562" transform="translate(-502.277 -461.089)"/>
    <path id="패스_8003" data-name="패스 8003" class="cls-5" d="M541.929,468.621c-1.308-1.315-3.841-1.935-4.25,2.166s2.86,3.636,3.923,2.862a3.226,3.226,0,0,0,.327-5.028" transform="translate(-502.109 -461.413)"/>
    <path id="패스_8004" data-name="패스 8004" class="cls-6" d="M540.544,471.172c-.369-1.22-1.471-1.314-1.962.542s.5,1.892,1.227,1.546a1.853,1.853,0,0,0,.735-2.088" transform="translate(-500.316 -462.185)"/>
    <path id="패스_8005" data-name="패스 8005" class="cls-7" d="M558.767,465.415a8.194,8.194,0,0,1-.062,5.418c-.227.589-.376.814-.561.917,0,0-.007.007-.011.011-1.062.929-3.351,2.166-2.126,3.946,1.027,1.49,11.971,1.731,19.677,1.544a5.585,5.585,0,0,0,1.326-1.7c.9-1.856.082-2.475-.408-6.73s.9-7.272.327-8.355c-.3-.563-2.094-1.084-3.753-1.454a90.377,90.377,0,0,0-18.148,2.846c-.736.387.49.078,2.043,1.238,1.208.9,1.836,1.878,1.7,2.319" transform="translate(-548.713 -458.905)"/>
    <path id="패스_8006" data-name="패스 8006" class="cls-7" d="M542.767,465.8c-.093,1.17.74.066-4.787-2.706-1.054-.529-.893-2.311-1.459-3.032,4.069,1.252,5.122,3.67,6.246,5.738" transform="translate(-501.101 -459.21)"/>
    <path id="패스_8007" data-name="패스 8007" class="cls-7" d="M550.626,459.7c.335.537,1.3,2.1,1.032,3.192-.328,1.314-2.615.945-3.515-1.066a4.189,4.189,0,0,0-1.824-2.3h.026a24.994,24.994,0,0,1,4.28.179" transform="translate(-516.986 -459.053)"/>
    <path id="패스_8008" data-name="패스 8008" class="cls-8" d="M566.155,473.138s-4.584-2.856-5.067,1.7c-.411,3.878,1.256,3.326,3.188,2.476a11.145,11.145,0,0,0,2.7-2.011l-2.043.541,1.471-.852-1.8-.077,1.553-.619-1.471-.542,1.307-.309Z" transform="translate(-542.68 -462.759)"/>
    <path id="패스_8009" data-name="패스 8009" class="cls-9" d="M555.652,480.571a1.624,1.624,0,0,1-.077-.216c-.01-.035-.012-.071-.019-.106a1.676,1.676,0,0,1-.029-.192c0-.036,0-.071,0-.107a1.7,1.7,0,0,1,.01-.181c.006-.034.014-.069.023-.1a1.617,1.617,0,0,1,.043-.174c.011-.033.026-.065.039-.1.023-.056.046-.113.075-.169.015-.031.034-.061.051-.091.032-.055.064-.112.1-.166.018-.028.04-.056.06-.084.04-.055.082-.111.127-.164.021-.026.043-.051.065-.075.049-.056.1-.111.152-.164.021-.022.041-.043.064-.064.057-.057.116-.114.177-.169l.052-.048c.069-.062.14-.123.211-.183A.2.2,0,0,0,556.8,478c.367-.306.747-.583,1.055-.839a6.381,6.381,0,0,0-1.026,2.275c-.083,1.1,1,.473,1.833.079s2.082-1.262,9,.71a31.054,31.054,0,0,0,9.11.8,5.742,5.742,0,0,1-1.22,1.509c-.666.016-1.36.029-2.067.038l-.237,0-.547.006-.295,0-.536,0c-.107,0-.214-.082-.321-.082-.177,0-.354-.082-.533-.082H570.7c-.347,0-.694.08-1.042.078-.1,0-.2.039-.293.038-.152,0-.3.018-.457.016s-.284.006-.425,0-.291,0-.435,0-.3,0-.445,0l-.423-.008-.469-.011-.388-.011-.531-.017-.322-.011c-.274-.01-.545-.02-.813-.032l-.247-.013c-.194-.007-.386-.016-.576-.026l-.308-.017c-.169-.009-.335-.018-.5-.028l-.309-.019-.486-.033-.286-.021-.528-.042-.208-.017c-.24-.021-.476-.043-.7-.066l-.125-.013q-.279-.029-.544-.061l-.212-.026c-.143-.016-.283-.035-.419-.054l-.22-.032c-.128-.018-.253-.038-.375-.058l-.2-.033c-.13-.022-.254-.045-.374-.069l-.15-.029c-.167-.035-.325-.069-.474-.106l-.045-.012q-.2-.049-.37-.1c-.042-.013-.081-.026-.12-.04-.084-.027-.165-.055-.24-.083-.04-.016-.078-.031-.116-.047-.067-.028-.129-.056-.187-.085-.033-.016-.065-.033-.1-.05a1.449,1.449,0,0,1-.149-.1c-.021-.015-.045-.03-.064-.045a.78.78,0,0,1-.145-.15,2.425,2.425,0,0,1-.186-.322c-.016-.032-.022-.062-.036-.094" transform="translate(-548.58 -464.186)"/>
    <path id="패스_8010" data-name="패스 8010" class="cls-3" d="M581.187,474.574c1.083,1.5,2.5,3.313,3.914.947s3.5-2.918,5-2.445c1.311.414.586,1.851.381,2.207.133-.541-.818-.685-1.523-.017-.9.851-3.514,3.481-4.822,2.785a6.864,6.864,0,0,1-3.21-3.919,2.962,2.962,0,0,0,.261.442" transform="translate(-580.682 -462.953)"/>
    <g id="그룹_13388" data-name="그룹 13388" class="cls-10" transform="translate(7.668 0.502)">
      <g id="그룹_13387" data-name="그룹 13387" transform="translate(0 0)">
        <g id="그룹_13386" data-name="그룹 13386" class="cls-11">
          <path id="패스_8011" data-name="패스 8011" class="cls-8" d="M571.377,463.514s-1.167-3.154-7.747-3.785-15.995.71-24.158,2.444a6.432,6.432,0,0,1,2.665,1.736c.667,1.025,1.417.472,2.25,0s11.828-2.6,16.161-2.919,8.58-.157,10.829,2.525" transform="translate(-539.472 -459.57)"/>
        </g>
      </g>
    </g>
    <g id="그룹_13391" data-name="그룹 13391" class="cls-12" transform="translate(17.081 0.537)">
      <g id="그룹_13390" data-name="그룹 13390" transform="translate(0 0)">
        <g id="그룹_13389" data-name="그룹 13389" class="cls-13">
          <path id="패스_8012" data-name="패스 8012" class="cls-8" d="M562.99,461.32s-5.582-3.549-19.827-.394c0,0-.666.789.667.631s11.745-2.839,19.16-.237" transform="translate(-542.996 -459.619)"/>
        </g>
      </g>
    </g>
    <g id="그룹_13394" data-name="그룹 13394" class="cls-14" transform="translate(31.046 8.009)">
      <g id="그룹_13393" data-name="그룹 13393" transform="translate(0 0)">
        <g id="그룹_13392" data-name="그룹 13392" class="cls-15">
          <path id="패스_8013" data-name="패스 8013" class="cls-16" d="M547.965,475.348a3.772,3.772,0,0,1-3.914.474c-2.167-1.025-1.083-6.624-3.249-5.52s-2,5.992,1.166,6.86,5.581,0,6-1.814" transform="translate(-539.354 -470.158)"/>
        </g>
      </g>
    </g>
    <g id="그룹_13397" data-name="그룹 13397" class="cls-17" transform="translate(33.598 11.779)">
      <g id="그룹_13396" data-name="그룹 13396" transform="translate(0 0)">
        <g id="그룹_13395" data-name="그룹 13395" class="cls-18">
          <path id="패스_8014" data-name="패스 8014" class="cls-16" d="M541.612,475.476s.251,2.839,4.416,2.524a3.547,3.547,0,0,1-3.249.473c-1.916-.631-1.167-3-1.167-3" transform="translate(-541.468 -475.476)"/>
        </g>
      </g>
    </g>
    <g id="그룹_13400" data-name="그룹 13400" class="cls-17" transform="translate(43.156 10.306)">
      <g id="그룹_13399" data-name="그룹 13399" transform="translate(0 0)">
        <g id="그룹_13398" data-name="그룹 13398" class="cls-19">
          <path id="패스_8015" data-name="패스 8015" class="cls-16" d="M532.418,475.187s1.833-.946,1.333-1.656-1.333,1.656-1.333,1.656" transform="translate(-532.419 -473.398)"/>
        </g>
      </g>
    </g>
    <g id="그룹_13403" data-name="그룹 13403" class="cls-17" transform="translate(18.429 9.574)">
      <g id="그룹_13402" data-name="그룹 13402" transform="translate(0 0)">
        <g id="그룹_13401" data-name="그룹 13401" class="cls-20">
          <path id="패스_8016" data-name="패스 8016" class="cls-16" d="M567.376,473.026a3.073,3.073,0,0,0-3.273.757c-1.469,1.537-1.43,3.344-.75,4.038-.52-.3-.779-1.124-.59-2.906.391-3.694,3.513-2.45,4.614-1.889" transform="translate(-562.701 -472.366)"/>
        </g>
      </g>
    </g>
    <g id="그룹_13406" data-name="그룹 13406" class="cls-17" transform="translate(0.053 3.433)">
      <g id="그룹_13405" data-name="그룹 13405" transform="translate(0 0)">
        <g id="그룹_13404" data-name="그룹 13404" class="cls-21">
          <path id="패스_8017" data-name="패스 8017" class="cls-16" d="M581.542,468.951c.028-.223.065-.452.118-.686.9-4.023,2.547-5.273,4.753-4.19s3.187,3.171,4.822,2.94c0,0-.162,1.093-2.494-.089-2.308-1.171-5.674-3.726-7.2,2.026" transform="translate(-581.542 -463.703)"/>
        </g>
      </g>
    </g>
  </g>
</svg>
