<svg xmlns="http://www.w3.org/2000/svg" xmlns:xlink="http://www.w3.org/1999/xlink" width="105.423" height="49.264" viewBox="0 0 105.423 49.264">
  <defs>
    <style>
      .cls-1 {
        fill: none;
      }

      .cls-2 {
        fill: url(#linear-gradient);
      }

      .cls-3 {
        clip-path: url(#clip-path);
      }

      .cls-4 {
        fill: url(#linear-gradient-2);
      }

      .cls-5 {
        clip-path: url(#clip-path-2);
      }

      .cls-6 {
        fill: url(#linear-gradient-3);
      }

      .cls-7 {
        clip-path: url(#clip-path-3);
      }

      .cls-8 {
        fill: url(#radial-gradient);
      }

      .cls-9 {
        clip-path: url(#clip-path-4);
      }

      .cls-10 {
        fill: url(#radial-gradient-2);
      }

      .cls-11 {
        clip-path: url(#clip-path-5);
      }

      .cls-12 {
        fill: url(#radial-gradient-3);
      }

      .cls-13 {
        clip-path: url(#clip-path-6);
      }

      .cls-14 {
        fill: url(#radial-gradient-4);
      }

      .cls-15 {
        clip-path: url(#clip-path-7);
      }

      .cls-16 {
        fill: url(#radial-gradient-5);
      }

      .cls-17 {
        clip-path: url(#clip-path-8);
      }

      .cls-18 {
        fill: url(#radial-gradient-6);
      }

      .cls-19 {
        clip-path: url(#clip-path-9);
      }

      .cls-20 {
        fill: url(#radial-gradient-7);
      }

      .cls-21 {
        clip-path: url(#clip-path-10);
      }

      .cls-22 {
        fill: url(#radial-gradient-8);
      }

      .cls-23 {
        clip-path: url(#clip-path-11);
      }

      .cls-24 {
        fill: url(#radial-gradient-9);
      }

      .cls-25 {
        clip-path: url(#clip-path-12);
      }

      .cls-26 {
        fill: url(#radial-gradient-10);
      }

      .cls-27 {
        fill: url(#radial-gradient-11);
      }

      .cls-28 {
        fill: #001f72;
      }

      .cls-29 {
        clip-path: url(#clip-path-13);
      }

      .cls-30 {
        fill: url(#linear-gradient-4);
      }

      .cls-31 {
        clip-path: url(#clip-path-14);
      }

      .cls-32 {
        fill: url(#linear-gradient-5);
      }

      .cls-33 {
        fill: #fff;
      }

      .cls-34 {
        fill: #080304;
      }

      .cls-35 {
        fill: #2d99d9;
      }

      .cls-36 {
        fill: #1b1617;
      }

      .cls-37 {
        clip-path: url(#clip-path-15);
      }

      .cls-38 {
        fill: url(#linear-gradient-6);
      }

      .cls-39 {
        fill: #67c1d8;
      }

      .cls-40 {
        fill: #ffda00;
      }

      .cls-41 {
        fill: #fffbd3;
      }

      .cls-42 {
        fill: #58bfe6;
      }

      .cls-43 {
        fill: #69c3dd;
      }

      .cls-44 {
        clip-path: url(#clip-path-16);
      }
    </style>
    <linearGradient id="linear-gradient" x1="-237.033" y1="25.479" x2="-236.393" y2="25.479" gradientUnits="objectBoundingBox">
      <stop offset="0" stop-color="#e43d0d"/>
      <stop offset="1" stop-color="#eb7000"/>
    </linearGradient>
    <clipPath id="clip-path">
      <path id="패스_7911" data-name="패스 7911" class="cls-1" d="M383.825,480.55c-1.16,1.593,1.675,3.076,2.829,1.494a10.691,10.691,0,0,1,9.317-4.175,1.48,1.48,0,1,0,0-2.953c-.236-.011-.471-.018-.707-.018a14.06,14.06,0,0,0-11.439,5.652" transform="translate(-383.551 -474.898)"/>
    </clipPath>
    <linearGradient id="linear-gradient-2" x1="-96.496" y1="9.688" x2="-96.245" y2="9.688" xlink:href="#linear-gradient"/>
    <clipPath id="clip-path-2">
      <path id="패스_7912" data-name="패스 7912" class="cls-1" d="M392.924,476.85a11.5,11.5,0,0,0-7.515,4.53c-1.167,1.587,1.666,3.069,2.828,1.489a8.3,8.3,0,0,1,5.557-3.171c1.96-.311,1.278-2.874-.546-2.874a1.993,1.993,0,0,0-.324.025" transform="translate(-385.132 -476.825)"/>
    </clipPath>
    <linearGradient id="linear-gradient-3" x1="-111.294" y1="12.449" x2="-111.005" y2="12.449" xlink:href="#linear-gradient"/>
    <clipPath id="clip-path-3">
      <path id="패스_7913" data-name="패스 7913" class="cls-1" d="M371.376,468.525c-.984,1.068.732,2.4,2.416.988,1.3-1.086,2.638-4.657,2.366-5.895-.091-.422-.256-.6-.471-.6-1.1,0-3.517,4.646-4.311,5.507" transform="translate(-371.088 -463.018)"/>
    </clipPath>
    <radialGradient id="radial-gradient" cx="6.977" cy="-9.355" r="1.728" gradientTransform="translate(18.232) scale(1.17 1)" gradientUnits="objectBoundingBox">
      <stop offset="0" stop-color="#d9237d"/>
      <stop offset="1" stop-color="#d35193"/>
    </radialGradient>
    <clipPath id="clip-path-4">
      <path id="패스_7914" data-name="패스 7914" class="cls-1" d="M392.135,469.482a.937.937,0,1,0,.521,1.8.683.683,0,0,1,.854.505,1.292,1.292,0,0,1-.512,1.149,2.951,2.951,0,0,1-1.294.619,7.294,7.294,0,0,1-.884.154,1.187,1.187,0,0,1-.181,0,.97.97,0,0,0-.215-.145c-.038-.023-.077-.038-.111-.059a1.013,1.013,0,0,0-.99,0c-1.147.829-.494,2.114.836,2.126a6.342,6.342,0,0,0,4.227-1.376,2.922,2.922,0,0,0,.836-3.411,2.688,2.688,0,0,0-2.371-1.466,2.521,2.521,0,0,0-.716.1" transform="translate(-388.731 -469.38)"/>
    </clipPath>
    <radialGradient id="radial-gradient-2" cx="0.514" cy="0.499" r="0.519" gradientTransform="translate(-209.319 51.081) rotate(180) scale(0.819 1)" xlink:href="#radial-gradient"/>
    <clipPath id="clip-path-5">
      <path id="패스_7915" data-name="패스 7915" class="cls-1" d="M395.714,475.515a12.446,12.446,0,0,1-5.383,4.263c-1.151.49-.154,2.1.988,1.611a14.184,14.184,0,0,0,6.088-4.936c.492-.7-.186-1.364-.879-1.364a.966.966,0,0,0-.814.426" transform="translate(-389.82 -475.089)"/>
    </clipPath>
    <radialGradient id="radial-gradient-3" cx="0.518" cy="0.471" r="0.523" gradientTransform="translate(-180.086 43.346) rotate(180) scale(0.779 1)" xlink:href="#radial-gradient"/>
    <clipPath id="clip-path-6">
      <path id="패스_7916" data-name="패스 7916" class="cls-1" d="M390.931,476.059a1.28,1.28,0,0,1-1.518.668.939.939,0,1,0-.521,1.8,3.3,3.3,0,0,0,3.932-1.976.942.942,0,0,0-.684-1.151,1.066,1.066,0,0,0-.261-.032,1.021,1.021,0,0,0-.947.687" transform="translate(-388.201 -475.372)"/>
    </clipPath>
    <radialGradient id="radial-gradient-4" cx="0.536" cy="0.453" r="0.558" gradientTransform="translate(-277.318 81.039) rotate(180) scale(0.679 1)" xlink:href="#radial-gradient"/>
    <clipPath id="clip-path-7">
      <path id="패스_7917" data-name="패스 7917" class="cls-1" d="M387.385,470.846a2.93,2.93,0,0,0,.839,3.411,6.348,6.348,0,0,0,4.229,1.376c1.33-.011,1.983-1.3.836-2.126a1.013,1.013,0,0,0-.99,0c-.039.02-.075.036-.111.059a.986.986,0,0,0-.218.145,1.2,1.2,0,0,1-.181,0,7.261,7.261,0,0,1-.882-.154,2.991,2.991,0,0,1-1.3-.619,1.306,1.306,0,0,1-.51-1.149.682.682,0,0,1,.854-.505.937.937,0,1,0,.524-1.8,2.542,2.542,0,0,0-.716-.1,2.7,2.7,0,0,0-2.375,1.466" transform="translate(-387.125 -469.38)"/>
    </clipPath>
    <radialGradient id="radial-gradient-5" cx="0.486" cy="0.499" r="0.519" gradientTransform="matrix(0.819, 0, 0, -1, -20.745, 51.081)" xlink:href="#radial-gradient"/>
    <clipPath id="clip-path-8">
      <path id="패스_7918" data-name="패스 7918" class="cls-1" d="M372.152,478.322c-1.145.512-.147,2.119.99,1.614.281-.127.22.637.159.737a1.521,1.521,0,0,1-.947.5,4,4,0,0,1-2.7-.433c-1.1-.585-2.094,1.027-.99,1.614,1.874.99,5.02,1.256,6.341-.73a2.268,2.268,0,0,0-2.851-3.3" transform="translate(-368.18 -478.113)"/>
    </clipPath>
    <radialGradient id="radial-gradient-6" cx="0.498" cy="0.455" r="0.564" gradientTransform="matrix(0.649, 0, 0, -1, -34.593, 51.083)" xlink:href="#radial-gradient"/>
    <clipPath id="clip-path-9">
      <path id="패스_7919" data-name="패스 7919" class="cls-1" d="M385.762,476.453a14.183,14.183,0,0,0,6.088,4.936c1.142.487,2.142-1.122.988-1.611a12.439,12.439,0,0,1-5.38-4.263.971.971,0,0,0-.814-.426c-.694,0-1.374.666-.882,1.364" transform="translate(-385.594 -475.089)"/>
    </clipPath>
    <radialGradient id="radial-gradient-7" cx="0.482" cy="0.471" r="0.523" gradientTransform="matrix(0.778, 0, 0, -1, -22.205, 43.346)" xlink:href="#radial-gradient"/>
    <clipPath id="clip-path-10">
      <path id="패스_7920" data-name="패스 7920" class="cls-1" d="M389.306,475.4a.94.94,0,0,0-.684,1.151,3.291,3.291,0,0,0,3.932,1.976.939.939,0,1,0-.523-1.8,1.282,1.282,0,0,1-1.518-.668,1.019,1.019,0,0,0-.947-.687,1.035,1.035,0,0,0-.258.032" transform="translate(-388.576 -475.372)"/>
    </clipPath>
    <radialGradient id="radial-gradient-8" cx="0.464" cy="0.453" r="0.558" gradientTransform="matrix(0.679, 0, 0, -1, -53.115, 81.039)" xlink:href="#radial-gradient"/>
    <clipPath id="clip-path-11">
      <path id="패스_7921" data-name="패스 7921" class="cls-1" d="M390.5,466.279l.034-.007-.034.007m.218-.045c-.061.009-.122.025-.184.039.075-.016.154-.032.231-.045l-.047.007" transform="translate(-390.496 -466.227)"/>
    </clipPath>
    <radialGradient id="radial-gradient-9" cx="0.503" cy="0.497" r="1.836" gradientTransform="translate(-3993.794 6412.186) rotate(180) scale(0.197 1)" xlink:href="#radial-gradient"/>
    <clipPath id="clip-path-12">
      <path id="패스_7922" data-name="패스 7922" class="cls-1" d="M385.142,472.109l-.034.317c.188.165.471-.141.782-.666-.313.483-.587.694-.748.349" transform="translate(-385.108 -471.76)"/>
    </clipPath>
    <radialGradient id="radial-gradient-10" cx="0.5" cy="0.428" r="0.449" gradientTransform="translate(-2303.688 371.876) rotate(180) scale(1.064 1)" xlink:href="#radial-gradient"/>
    <radialGradient id="radial-gradient-11" cx="0.5" cy="0.5" r="0.391" gradientTransform="translate(-1113.437 61.676) rotate(180) scale(2.015 1)" xlink:href="#radial-gradient"/>
    <clipPath id="clip-path-13">
      <path id="패스_7926" data-name="패스 7926" class="cls-1" d="M378.14,471.5c-10.611,8.959-20.2,19.974-19.659,21.429S419.35,471.22,419.35,471.22s-9.222-3.114-13.684-5.535-4.8-3.891-4.8-3.891A42.932,42.932,0,0,0,378.14,471.5" transform="translate(-358.459 -461.794)"/>
    </clipPath>
    <linearGradient id="linear-gradient-4" x1="-12.707" y1="4.808" x2="-12.672" y2="4.808" gradientUnits="objectBoundingBox">
      <stop offset="0" stop-color="#2d9ad9"/>
      <stop offset="0.182" stop-color="#2a95d5"/>
      <stop offset="0.397" stop-color="#2486c9"/>
      <stop offset="0.628" stop-color="#196fb7"/>
      <stop offset="0.869" stop-color="#094e9d"/>
      <stop offset="1" stop-color="#00398d"/>
    </linearGradient>
    <clipPath id="clip-path-14">
      <path id="패스_7927" data-name="패스 7927" class="cls-1" d="M406.34,465.279c-17.424,1.169-30.249,11.8-38.211,16.492s-13.716,7.5-7.028,11.026c5.72,3.014,30.49,18.088,56.689,11.731,15.384-3.728,18.841-15.593,22.934-17.841,2.491-1.369-3.286-1.022-3.286-1.022s1.26-.315,2.883-4.07-1.967-3.264-1.967-3.264a61.05,61.05,0,0,1-6.774-5.537c-2.334-2.353-6.926-7.663-21.007-7.663q-1.985,0-4.231.147" transform="translate(-358.164 -465.132)"/>
    </clipPath>
    <linearGradient id="linear-gradient-5" x1="-8.959" y1="3.537" x2="-8.934" y2="3.537" xlink:href="#linear-gradient-4"/>
    <clipPath id="clip-path-15">
      <path id="패스_7936" data-name="패스 7936" class="cls-1" d="M374.092,487.225c7.144,2.529,11.924.87,11.924.87s1.267-.208-4.274-1.369a86.4,86.4,0,0,1-18.723-6.668,5.009,5.009,0,0,0-1.5-.637c-1.015,0,6.541,5.668,12.572,7.8" transform="translate(-361.428 -479.422)"/>
    </clipPath>
    <linearGradient id="linear-gradient-6" x1="-29.728" y1="11.133" x2="-29.645" y2="11.133" xlink:href="#linear-gradient-4"/>
    <clipPath id="clip-path-16">
      <path id="교차_2" data-name="교차 2" class="cls-1" d="M.9,3.568.927,6.086A8.711,8.711,0,0,0,0,6.376,6.962,6.962,0,0,1,.9,3.568ZM.857,0Z"/>
    </clipPath>
  </defs>
  <g id="그룹_13324" data-name="그룹 13324" transform="translate(-917.033 -4766.545)">
    <g id="그룹_13322" data-name="그룹 13322" transform="translate(917.033 4766.545)">
      <g id="그룹_13284" data-name="그룹 13284" transform="translate(50.562 3.112)">
        <path id="패스_7910" data-name="패스 7910" class="cls-2" d="M370.661,469.934l3.408.068.136-6.834" transform="translate(-370.661 -463.167)"/>
      </g>
      <g id="그룹_13286" data-name="그룹 13286" transform="translate(79.777 29.699)">
        <g id="그룹_13285" data-name="그룹 13285" class="cls-3">
          <rect id="사각형_6182" data-name="사각형 6182" class="cls-4" width="9.032" height="15.582" transform="translate(-1.06 8.724) rotate(-88.862)"/>
        </g>
      </g>
      <g id="그룹_13288" data-name="그룹 13288" transform="translate(83.36 34.066)">
        <g id="그룹_13287" data-name="그룹 13287" class="cls-5">
          <rect id="사각형_6183" data-name="사각형 6183" class="cls-6" width="7.851" height="11.662" transform="matrix(0.02, -1, 1, 0.02, -1.042, 7.621)"/>
        </g>
      </g>
      <g id="그룹_13290" data-name="그룹 13290" transform="translate(51.53 2.774)">
        <g id="그룹_13289" data-name="그룹 13289" class="cls-7">
          <rect id="사각형_6184" data-name="사각형 6184" class="cls-8" width="7.837" height="9.171" transform="matrix(0.968, -0.252, 0.252, 0.968, -2.626, 0.504)"/>
        </g>
      </g>
      <g id="그룹_13292" data-name="그룹 13292" transform="translate(91.517 17.193)">
        <g id="그룹_13291" data-name="그룹 13291" class="cls-9">
          <rect id="사각형_6185" data-name="사각형 6185" class="cls-10" width="7.651" height="6.267" transform="translate(-0.556)"/>
        </g>
      </g>
      <g id="그룹_13294" data-name="그룹 13294" transform="translate(93.986 30.132)">
        <g id="그룹_13293" data-name="그룹 13293" class="cls-11">
          <rect id="사각형_6186" data-name="사각형 6186" class="cls-12" width="8.719" height="6.788" transform="translate(-0.64)"/>
        </g>
      </g>
      <g id="그룹_13296" data-name="그룹 13296" transform="translate(90.316 30.773)">
        <g id="그룹_13295" data-name="그룹 13295" class="cls-13">
          <rect id="사각형_6187" data-name="사각형 6187" class="cls-14" width="5.324" height="3.615" transform="translate(-0.522 -0.002)"/>
        </g>
      </g>
      <g id="그룹_13298" data-name="그룹 13298" transform="translate(87.878 17.193)">
        <g id="그룹_13297" data-name="그룹 13297" class="cls-15">
          <rect id="사각형_6188" data-name="사각형 6188" class="cls-16" width="7.651" height="6.267" transform="translate(-0.341)"/>
        </g>
      </g>
      <g id="그룹_13300" data-name="그룹 13300" transform="translate(44.941 36.985)">
        <g id="그룹_13299" data-name="그룹 13299" class="cls-17">
          <rect id="사각형_6189" data-name="사각형 6189" class="cls-18" width="8.463" height="5.491" transform="translate(-0.622)"/>
        </g>
      </g>
      <g id="그룹_13302" data-name="그룹 13302" transform="translate(84.407 30.132)">
        <g id="그룹_13301" data-name="그룹 13301" class="cls-19">
          <rect id="사각형_6190" data-name="사각형 6190" class="cls-20" width="8.721" height="6.788" transform="translate(-0.324)"/>
        </g>
      </g>
      <g id="그룹_13304" data-name="그룹 13304" transform="translate(91.165 30.773)">
        <g id="그룹_13303" data-name="그룹 13303" class="cls-21">
          <rect id="사각형_6191" data-name="사각형 6191" class="cls-22" width="5.326" height="3.615" transform="translate(-0.136 -0.002)"/>
        </g>
      </g>
      <g id="그룹_13306" data-name="그룹 13306" transform="translate(95.517 10.047)">
        <g id="그룹_13305" data-name="그룹 13305" class="cls-23">
          <rect id="사각형_6192" data-name="사각형 6192" class="cls-24" width="0.265" height="0.052" transform="translate(0)"/>
        </g>
      </g>
      <g id="그룹_13308" data-name="그룹 13308" transform="translate(83.305 22.587)">
        <g id="그룹_13307" data-name="그룹 13307" class="cls-25">
          <rect id="사각형_6193" data-name="사각형 6193" class="cls-26" width="0.782" height="0.832"/>
        </g>
      </g>
      <g id="그룹_13310" data-name="그룹 13310" transform="translate(103.577 27.568)">
        <g id="그룹_13309" data-name="그룹 13309" transform="translate(0 0)">
          <rect id="사각형_6194" data-name="사각형 6194" class="cls-27" width="0.862" height="1.738" transform="translate(0 0)"/>
          <path id="패스_7923" data-name="패스 7923" class="cls-1" d="M394.062,474.1l.134,1.084a.345.345,0,0,0,.343.327" transform="translate(-394.04 -473.775)"/>
          <path id="패스_7924" data-name="패스 7924" class="cls-1" d="M394.747,474.024a.345.345,0,0,0-.343-.326c-.169,0-.364.15-.343.326" transform="translate(-394.04 -473.698)"/>
        </g>
      </g>
      <g id="그룹_13311" data-name="그룹 13311" transform="translate(22.273 31.567)">
        <path id="패스_7925" data-name="패스 7925" class="cls-28" d="M397.553,492.083a32.543,32.543,0,0,1-24.325-2.341c-13.8-7.021-18.383-16.27-12.61-13.523,3.851,1.833,36.935,15.865,36.935,15.865" transform="translate(-358.179 -475.722)"/>
      </g>
      <g id="그룹_13313" data-name="그룹 13313" transform="translate(22.909 0)">
        <g id="그룹_13312" data-name="그룹 13312" class="cls-29">
          <rect id="사각형_6195" data-name="사각형 6195" class="cls-30" width="63.798" height="37.349" transform="translate(-3.092 0.204) rotate(-4.541)"/>
        </g>
      </g>
      <g id="그룹_13315" data-name="그룹 13315" transform="translate(22.24 7.565)">
        <g id="그룹_13314" data-name="그룹 13314" class="cls-31">
          <rect id="사각형_6196" data-name="사각형 6196" class="cls-32" width="90.115" height="48.358" transform="translate(-5.103 0.04) rotate(-1.693)"/>
        </g>
      </g>
      <g id="그룹_13316" data-name="그룹 13316" transform="translate(23.23 0)">
        <path id="패스_7928" data-name="패스 7928" class="cls-28" d="M380.574,470.873a18.52,18.52,0,0,0,4.039,15.912c6.357,7.4,13.814,4.458,17.68,2.017,0,0-7.833,3.613-13.968-1.027s-7.751-16.9-7.751-16.9" transform="translate(-331.296 -450.296)"/>
        <path id="패스_7929" data-name="패스 7929" class="cls-28" d="M390.6,468.587c6.337.02,11.459,8.322,7.413,13.639s-12.9.63-13.111-6.776c-.159-5.664,3.855-6.869,5.7-6.863" transform="translate(-325.297 -453.191)"/>
        <path id="패스_7930" data-name="패스 7930" class="cls-33" d="M390.43,469.3c5.358,0,9.671,7.11,6.235,11.676s-10.908.569-11.067-5.775c-.122-4.859,3.275-5.9,4.832-5.9" transform="translate(-324.417 -452.282)"/>
        <path id="패스_7931" data-name="패스 7931" class="cls-34" d="M387.4,470.233c3.787-1.559,6.559,4.438,3.821,6.326-3.966,2.738-7.1-4.977-3.821-6.326" transform="translate(-323.871 -451.431)"/>
        <path id="패스_7932" data-name="패스 7932" class="cls-33" d="M386.36,472.629a1.064,1.064,0,1,0,1.24-.857,1.063,1.063,0,0,0-1.24.857" transform="translate(-323.47 -449.181)"/>
        <path id="패스_7933" data-name="패스 7933" class="cls-35" d="M389.907,466.6s-12.592.145-8.975,16.094,18.936,15.16,23.8,9.22c0,0-8.988,7.261-16.209-2.346-6.212-8.265-2.5-17.961,2.466-20.064s1.673-3.123-1.086-2.9" transform="translate(-331.148 -455.747)"/>
        <path id="패스_7934" data-name="패스 7934" class="cls-28" d="M367.517,485.222s-5.825,5.072-8.916,6.659c1.711-3.275,10.149-12.6,19.362-20.377a42.932,42.932,0,0,1,22.727-9.709s.331,1.469,4.8,3.891c.218.12.453.238.694.363-1.335-.274-4.73-1.047-6.171-2.065-1.809-1.281-3.461-.578-2.688.215s5.782,4.666,5.782,4.666-8.828-3.572-10.679-3.565,3.638,4.553,3.638,4.553-7.8-3.225-9.541-1.806,2.4,3.368,2.4,3.368-6.559-1.9-7.862-.372,3.807,3.116,3.807,3.116-6.253-1.639-7.352-1.127,2.33,4.229,2.33,4.229-4.141-1.947-5.87-.387,1.8,2.992,1.8,2.992-4.3-.369-5.779.743.746,2.219.746,2.219-2.767-.775-3.81.446.582,1.947.582,1.947" transform="translate(-358.601 -461.794)"/>
        <path id="패스_7935" data-name="패스 7935" class="cls-36" d="M360.125,488.808c.453.059-1.593,4.467-.694,4.515,2.665.131,7.3-2.611,12.633-3.193,13.524-1.475,31.46-2.432,32.573-6.015,1.7-5.476-.444-8.3,1.6-12.089s7.982-5.813,4.766-5.983c-4.546-.243-15.024-2.28-30.762,6.659s-25.3,15.448-20.121,16.107m34.218-13.279c8.34-2.584,10.7.22,7.164,4.134-1.861,2.06-4.535,2.067-14.217,3.907s-1.285-5.451,7.053-8.041" transform="translate(-358.463 -456.881)"/>
      </g>
      <g id="그룹_13318" data-name="그룹 13318" transform="translate(29.638 39.952)">
        <g id="그룹_13317" data-name="그룹 13317" class="cls-37">
          <rect id="사각형_6197" data-name="사각형 6197" class="cls-38" width="27.511" height="12.42" transform="matrix(0.997, -0.079, 0.079, 0.997, -1.738, 0.065)"/>
        </g>
      </g>
      <g id="그룹_13319" data-name="그룹 13319" transform="translate(0 7.315)">
        <path id="패스_7937" data-name="패스 7937" class="cls-36" d="M354.324,472.07c1.484.893,3.422,2.026,5.972,3.422,9.528,5.222,16.488-1.274,16.488-1.274s-3.155,3.739-2.926,6.6,2.527,4.927-1.5,3.964c-3.907-.932-20.509,3.993-23.366,3.685a3.058,3.058,0,0,1,.508-.245c4.145-1.609,21.639-6.4,19.765-7.146-9.156-3.653-10.8-5.818-14.938-9.011" transform="translate(-347.543 -456.095)"/>
        <path id="패스_7938" data-name="패스 7938" class="cls-39" d="M380.51,474.6c-.274-3,1.426-8.941,1.992-.016s2.022,11.092,3.712,12.665-4.619-.773-5.7-12.649" transform="translate(-307.664 -458.877)"/>
        <path id="패스_7939" data-name="패스 7939" class="cls-40" d="M369.845,481.684c2.91,1.419-.086,2.264-3.023,3.767-3.851,1.97-16.3,4.025-17.05,4.086-.088.007-.163.143-.247.127-2.826-.632.295-17.671.641-18.7,0,0,11.012,6.493,19.679,10.718" transform="translate(-348.351 -457.493)"/>
        <path id="패스_7940" data-name="패스 7940" class="cls-41" d="M359.547,478.954c-5.734-1.895-10.577-5.852-10.1-7.028s2.439.675,4.839,2.722c3.971,3.386,10.818,6.146,5.26,4.306" transform="translate(-347.003 -456.744)"/>
        <path id="패스_7941" data-name="패스 7941" class="cls-42" d="M394.3,472c1.471-1,3.828-2.015,3.039.614s-4.7,1.8-5.455-.566A2.979,2.979,0,0,0,394.3,472" transform="translate(-293.218 -457.521)"/>
        <path id="패스_7942" data-name="패스 7942" class="cls-43" d="M372.97,468.715s12.093-5.519,24.253-3.064,16.159,9.825,16.159,9.825-3.866-5.675-16.309-8.1a54,54,0,0,0-24.1,1.344" transform="translate(-317.174 -465.021)"/>
        <path id="패스_7943" data-name="패스 7943" class="cls-40" d="M386.966,475.388c-2.309-2.167-11.121-5.525-13.025-2.6s4.723,13.723,7.175,15.024,7.178-3.776,7.171-6.552a17.913,17.913,0,0,0-1.321-5.874" transform="translate(-316.373 -456.632)"/>
        <path id="패스_7944" data-name="패스 7944" class="cls-28" d="M376.288,475.817c-.392,0-.637-.009-.637-.009s.245,0,.637.009m6.423,1.46c.542,1.453-4.651,1.972-4.651,1.972s4.345-.451,5.138.127-3.488,3.159-3.488,3.159,4.039-1.6,4.619-1.008c.519.53-.961,3.678-2.414,5.43,1.965-1.421,3.78-4.03,3.778-5.754a17.972,17.972,0,0,0-1.321-5.872c-1.444-1.358-5.439-3.182-8.692-3.638.086.045.184.091.295.138,0,0,5.838,2.205,6.772,3.2.771.82-4.583.816-6.459.786,1.652.05,5.986.286,6.423,1.46" transform="translate(-313.779 -456.574)"/>
      </g>
      <g id="그룹_13321" data-name="그룹 13321" transform="translate(30.048 37.435)">
        <g id="그룹_13320" data-name="그룹 13320" class="cls-44">
          <line id="선_72" data-name="선 72" class="cls-33" x1="11.901" transform="translate(-2.679 -0.32)"/>
        </g>
      </g>
    </g>
  </g>
</svg>
