<svg xmlns="http://www.w3.org/2000/svg" width="179.06" height="195.949" viewBox="0 0 179.06 195.949">
  <defs>
    <style>
      .cls-1 {
        fill: #0c1267;
      }

      .cls-2 {
        fill: #ff6b24;
      }
    </style>
  </defs>
  <g id="그룹_38797" data-name="그룹 38797" transform="translate(-228.501 -1938)">
    <path id="패스_2123" data-name="패스 2123" class="cls-1" d="M573.656,207.015a294.794,294.794,0,0,0-39.729,10.846,251.8,251.8,0,0,0-36.84,16.016,151.072,151.072,0,0,0-30.971,21.586,94.958,94.958,0,0,0-11.541,12.795,73.221,73.221,0,0,0-7.795,13.569,26.416,26.416,0,1,1-44.159-27.882l1.269-1.439a124.415,124.415,0,0,1,19.275-17.734,139.288,139.288,0,0,1,21.118-12.663A185.585,185.585,0,0,1,487.793,207.7a274.02,274.02,0,0,1,43.226-5.257,303.448,303.448,0,0,1,42.535.971,1.819,1.819,0,0,1,.174,3.6Z" transform="translate(-167.639 1836.248)"/>
    <path id="패스_2124" data-name="패스 2124" class="cls-2" d="M559.447,287.159a150.3,150.3,0,0,0-63.9-9.577l-3.863.238-3.844.506c-2.545.381-5.061.627-7.549,1.1-4.977,1.129-9.842,1.983-14.547,3.637-9.46,2.647-18.21,7.036-26.439,11.428a29.341,29.341,0,1,1-16.7-55.092l.43-.034c13.463-1.258,26.73-1.824,39.74-.211,6.481.476,12.852,1.862,19.094,3.032,3.116.672,6.182,1.594,9.23,2.387,1.518.423,3.04.8,4.539,1.265l4.449,1.537a168.025,168.025,0,0,1,33.241,15.408,152.678,152.678,0,0,1,28.207,21.428,1.825,1.825,0,0,1-1.945,3Z" transform="translate(-154.525 1699.833)"/>
  </g>
</svg>
